<?xml version="1.0" standalone="no"?>
<!DOCTYPE svg PUBLIC "-//W3C//DTD SVG 1.1//EN" "http://www.w3.org/Graphics/SVG/1.1/DTD/svg11.dtd" >
<!--
2013-9-30: Created.
-->
<svg>
<metadata>
Created by iconfont
</metadata>
<defs>

<font id="iconfont" horiz-adv-x="1024" >
  <font-face
    font-family="iconfont"
    font-weight="500"
    font-stretch="normal"
    units-per-em="1024"
    ascent="896"
    descent="-128"
  />
    <missing-glyph />
    
    <glyph glyph-name="pengyouquan" unicode="&#983299;" d="M679.170882 497.01803 679.170882 769.502981c0 0-133.338844 71.481008-288.989857 16.365736L679.170882 497.01803zM704.414823 336.715067 704.414823 758.251729c0 0 157.630087-71.433936 202.051809-244.963131L704.414823 336.715067zM619.614461 214.188476l290.99042 273.64845c0 0 51.487651-83.708494-25.293059-273.64845L619.614461 214.188476zM471.029378 179.49328l393.014048 0c0 0-47.444569-128.594797-217.255069-181.688016L471.029378 179.49328zM342.736457 266.304438l0-256.17959c0 0 102.071723-65.36573 276.878005-21.478174L342.736457 266.304438zM115.370099 253.053646 314.44511 431.673789l0-406.206512C314.44511 25.4683 194.172863 67.217147 115.370099 253.053646zM110.3252 281.623331c0 0-45.538149 146.935514 18.154475 274.554076l273.811156 0L110.3252 281.623331zM145.682475 584.816678c0 0 57.602929 130.594337 214.20971 191.869912l186.893574-191.869912L145.682475 584.816678z"  horiz-adv-x="1024" />

    
    <glyph glyph-name="qqkongjian" unicode="&#58996;" d="M900.135587-92.575981M980.890548 425.700779l-106.719976 0-181.378803 0-42.703043 76.043628L532.787065 727.25621l-21.359047 0-106.67482-225.511804-42.703043-76.043628L180.626194 425.700779 28.222843 425.700779l0-4.831751 60.208731-42.687991 168.825283-149.453124-38.307805-341.594238c0-10.656945 2.197619-10.656945 23.51151-10.656945l278.525592 170.812171 277.938557-170.812171c10.68705 0 10.957989 0 21.629987 10.656945L767.34523 228.727914l160.125121 137.336116 64.092195 51.899927C991.562546 428.635955 991.562546 425.700779 980.890548 425.700779zM287.361223 90.654241l309.412671 252.169219-288.083728 49.37116 437.46159 0L479.396972 150.697398l277.426782-60.043157L287.361223 90.654241z"  horiz-adv-x="1024" />

    
    <glyph glyph-name="lingdang" unicode="&#58909;" d="M852.433139 210.845149 852.433139 477.215025c0 123.539645-66.800456 222.86993-170.669996 274.767248C661.336995 833.156536 593.325073 893.299418 512 893.299418c-78.905136 0-142.982038-57.721946-163.181473-138.140166-107.652752-50.913563-177.252665-151.832837-177.252665-277.944227l0-265.992353C110.137607 197.453098 67.242896 148.05362 67.242896 85.640611l0-45.466457c0-38.808883 32.605733-70.43186 72.626083-70.43186l300.943119 0c-2.194223-7.036095-4.463351-14.222999-4.463351-22.091041 0-41.760147 33.892105-75.651254 75.652253-75.651254 41.760147 0 75.651254 33.892105 75.651254 75.651254 0 7.868042-2.268129 15.054946-4.463351 22.165946l300.944118 0c40.018352 0 72.625084 31.622977 72.625084 70.43186L956.758103 85.715516C956.757104 147.523291 914.54453 196.698054 852.433139 210.845149zM512 817.648164c26.175871 0 50.308329-12.331393 68.46435-31.84969-21.938234 3.631404-44.785319 5.749723-68.46435 5.749723-22.619372 0-44.331892-2.194223-65.363275-5.52301C463.506375 805.619388 486.353459 817.648164 512 817.648164zM881.104852 45.469453l-738.210702-5.220393L142.89415 85.715516c0 31.621978 26.32668 53.713019 66.497839 53.713019l37.827125 0L247.219113 477.215025c0 140.561102 108.862221 238.680919 264.780887 238.680919s264.780887-98.120816 264.780887-238.680919l0-296.102246L410.248779 181.112779c-20.879574 0-37.826126-16.945553-37.826126-37.825128s16.946552-37.826126 37.826126-37.826126l466.545528 0c2.571745-6.05234 4.310544-12.63401 4.310544-19.820914L881.104852 45.469453z"  horiz-adv-x="1024" />

    
    <glyph glyph-name="weibo" unicode="&#58941;" d="M726.974 393.461c-34.789 6.761-17.886 25.465-17.886 25.465s34.027 56.002-6.707 96.79c-50.495 50.44-173.186-6.435-173.186-6.435-46.828-14.56-34.409 6.598-27.81 42.697 0 42.424-14.519 114.294-139.31 71.816-124.709-42.642-231.751-192.217-231.751-192.217-74.487-99.299-64.591-176.076-64.591-176.076 18.568-169.478 198.679-216.047 338.766-227.061 147.381-11.616 346.304 50.821 406.615 178.912 60.311 128.363-49.294 179.129-84.138 186.109v0zM415.431 76.263c-146.275-6.816-264.55 66.526-264.55 164.188 0 97.717 118.275 176.13 264.55 182.838 146.426 6.761 264.92-53.603 264.92-151.101 0-97.663-118.547-189.273-264.92-195.925v0zM386.285 358.944c-147.203-17.231-130.163-155.082-130.163-155.082s-1.527-43.679 39.453-65.872c86.102-46.623 174.741-18.377 219.55 39.479 44.824 57.801 18.486 198.542-128.84 181.475v0zM349.151 165.473c-27.483-3.272-49.622 12.597-49.622 35.553 0 22.903 19.658 46.895 47.141 49.786 31.573 2.944 52.104-15.269 52.104-38.226-0-22.847-22.303-44.005-49.622-47.113v0zM435.853 239.307c-9.297-6.926-20.775-5.944-25.656 2.4-5.153 8.124-3.217 21.158 6.217 27.974 10.906 8.124 22.221 5.78 27.156-2.345 4.933-8.289 1.39-20.83-7.717-28.028v0zM798.626 453.117c11.832 0 21.921 8.724 23.611 20.231 0.218 0.818 0.327 1.581 0.327 2.562 17.995 161.572-132.398 133.761-132.398 133.761-13.36 0-24.048-10.797-24.048-24.266 0-13.25 10.687-24.048 24.048-24.048 108.023 23.83 84.194-84.193 84.194-84.193 0.001-13.361 10.852-24.049 24.267-24.049v0zM781.067 735.144c-51.967 12.215-105.406 1.745-120.401-1.145-1.199-0.108-2.29-1.199-3.326-1.417-0.49-0.109-0.873-0.655-0.873-0.655-14.723-4.2-25.52-17.831-25.52-34.027 0-19.249 15.595-35.063 35.064-35.063 0 0 18.921 2.508 31.737 7.58 12.76 5.126 120.401 3.816 173.896-86.048 29.228-65.546 12.868-109.387 10.797-116.476 0 0-6.926-17.013-6.926-33.808 0-19.358 15.595-31.519 34.953-31.519 16.141 0 29.719 2.182 33.7 29.556h0.218c57.419 191.345-70.235 281.319-163.318 303.021v0zM781.067 735.144z"  horiz-adv-x="1024" />

    
    <glyph glyph-name="weigouxuanv2" unicode="&#59024;" d="M921.6 844.8c28.2368 0 51.2-22.9632 51.2-51.2l0-819.2c0-28.2368-22.9632-51.2-51.2-51.2L102.4-76.8c-28.2368 0-51.2 22.9632-51.2 51.2L51.2 793.6c0 28.2368 22.9632 51.2 51.2 51.2L921.6 844.8M921.6 896 102.4 896C45.8496 896 0 850.1504 0 793.6l0-819.2c0-56.5504 45.8496-102.4 102.4-102.4l819.2 0c56.5504 0 102.4 45.8496 102.4 102.4L1024 793.6C1024 850.1504 978.1504 896 921.6 896L921.6 896z"  horiz-adv-x="1024" />

    
    <glyph glyph-name="search" unicode="&#59052;" d="M789.522 105.017c92.831 78.706 151.754 196.181 151.754 327.424 0 236.973-192.105 429.081-429.077 429.081s-429.077-192.108-429.077-429.081c0-236.979 192.105-429.081 429.077-429.081 81.956 0 158.542 22.982 223.675 62.847l148.256-154.578c6.126-6.592 16.803-7.289 23.846-1.554l25.514 20.778c7.043 5.732 7.786 15.728 1.66 22.322l-145.627 151.842zM149.133 432.441c0 200.514 162.551 363.062 363.066 363.062s363.066-162.548 363.066-363.062c0-200.517-162.551-363.072-363.066-363.072s-363.066 162.555-363.066 363.072z"  horiz-adv-x="1024" />

    
    <glyph glyph-name="store" unicode="&#58965;" d="M936.026112 830.480384c-6.11328 18.722816-15.499264 46.956544-56.131584 46.956544H149.225472c-41.193472 0-50.393088-28.90752-55.332864-44.437504L20.77696 494.931968c-2.965504-22.091776 4.446208-35.844096 11.173888-43.454464 10.375168-11.784192 26.062848-17.616896 46.37696-17.616896 2.226176-2.048 4.560896-4.02432 6.979584-5.9392V-52.67456c0-31.363072 25.628672-56.895488 57.184256-56.895488H885.76c31.555584 0 57.243648 25.532416 57.243648 56.895488V429.760512a128.09216 128.09216 0 0 1 4.878336 4.163584h1.112064c13.953024 0 26.427392 3.44064 36.186112 10.00448 10.620928 7.059456 23.277568 21.174272 22.786048 52.7872L936.026112 830.480384z m-39.335936-883.152896c0-5.953536-4.876288-10.862592-10.928128-10.862592H142.491648a10.862592 10.862592 0 0 0-10.866688 10.862592V403.269632c16.979968-5.71392 35.20512-8.871936 53.291008-8.871936 35.633152 0 77.871104 13.871104 105.908224 33.447936 28.407808-19.7632 74.723328-36.70016 120.111104-36.70016 41.930752 0 91.273216 24.487936 115.664896 38.295552 25.628672-18.900992 67.743744-34.981888 117.950464-34.981888 47.982592 0.120832 84.045824 19.39456 103.806976 33.263616 26.058752-18.655232 63.172608-30.441472 98.8672-30.441472 17.22368 0 33.927168 2.646016 49.465344 7.64928v-457.603072z m62.6176 534.595584c-1.978368-1.349632-5.926912-2.08896-15.5648-1.783808l-12.720128 2.58048-8.892416-9.51296c-17.354752-18.784256-45.326336-30.01344-74.907648-30.01344-35.135488 0-67.434496 15.097856-81.266688 30.01344l-16.365568 17.494016-17.108992-16.760832c-0.3072-0.305152-34.459648-33.325056-88.80128-33.509376-43.966464 0-82.317312 16.508928-97.445888 32.899072l-13.217792 14.297088-16.427008-10.55744c-17.227776-11.046912-69.779456-39.829504-105.658368-39.829504-44.771328 0-89.419776 21.417984-103.129088 36.272128l-16.979968 18.35008-17.102848-18.35008c-14.514176-15.652864-54.593536-33.081344-88.805376-33.081344-35.817472 0-66.076672 16.265216-80.091136 32.407552l-8.769536 9.756672-12.845056-2.207744c-0.555008-0.12288-3.024896-0.493568-6.23616-0.493568-6.729728 0-9.754624 1.533952-10.123264 1.845248 0 0-0.927744 1.779712-0.497664 5.337088L135.886848 812.685312l2.097152 6.443008c1.236992 3.803136 3.211264 10.129408 4.571136 11.169792 0.3072 0.249856 2.347008 0.923648 6.6048 0.923648h730.673152c4.569088 0 6.17472-0.673792 6.23616-0.673792 1.667072-1.599488 4.261888-9.455616 6.299648-15.286272L962.1504 491.741184c0-3.618816-0.497664-8.28416-2.842624-9.818112zM228.352 38.912h126.976v-40.96h-126.976zM439.296 38.912h395.264v-40.96h-395.264z"  horiz-adv-x="1024" />

    
    <glyph glyph-name="chilun" unicode="&#58971;" d="M645.5296-36.62336h-0.01024c-16.19968 0-31.9488 6.70208-42.12224 17.92512-13.86496 15.20128-57.7792 54.72256-93.73184 54.72256-35.70176 0-80.29696-39.75168-93.1072-53.67296-10.14784-11.02848-25.78944-17.61792-41.84064-17.61792-7.63904 0-14.85824 1.46944-21.44256 4.36224l-1.14688 0.50688-109.27616 61.1072-1.08032 0.75776c-19.89632 13.93152-27.45856 41.1648-17.60768 63.35488 0.0768 0.17408 10.07616 23.24992 10.07616 44.29824 0 63.86688-51.95264 115.82464-115.83488 115.82464h-3.8656l-0.71168-0.01024c-18.28864 0-33.18784 16.256-37.94944 41.41568-0.37376 1.99168-9.3184 49.69984-9.3184 87.29088 0 37.59104 8.94464 85.2992 9.3184 87.31648 4.81792 25.472 20.03968 41.83552 38.66112 41.38496h3.8656c63.87712 0 115.83488 51.968 115.83488 115.84 0 21.03296-9.98912 44.11904-10.09664 44.3392-9.84576 22.17984-2.2272 49.40288 17.74592 63.28832l1.13152 0.78336 115.32288 63.34976 1.19808 0.50688c6.49216 2.76992 13.60896 4.1728 21.14048 4.1728 16.01536 0 31.67744-6.44096 41.92256-17.23904 13.64992-14.28992 56.79616-51.456 91.7248-51.456 34.57536 0 77.45536 36.43392 91.06944 50.47296 10.17856 10.5728 25.74848 16.90624 41.6 16.90624 7.69024 0 14.93504-1.45408 21.5296-4.3264l1.16736-0.50688 111.3856-61.88544 1.1008-0.76288c19.92704-13.91104 27.50464-41.14432 17.65888-63.35488-0.08704-0.16384-10.08128-23.25504-10.08128-44.29312 0-63.872 51.95264-115.84 115.82464-115.84h3.87584c18.59072 0.42496 33.82784-15.90784 38.65088-41.38496 0.37888-2.01216 9.32864-49.72032 9.32864-87.31136 0-37.5808-8.94976-85.2992-9.32864-87.30112-4.81792-25.48224-20.06016-41.7792-38.65088-41.40544h-3.87584c-63.872 0-115.82464-51.95776-115.82464-115.82464 0-21.0432 9.99424-44.11392 10.09664-44.34944 9.8304-22.14912 2.24256-49.38752-17.70496-63.28832l-1.12128-0.77312-113.25952-62.60224-1.1776-0.50688c-6.48192-2.80064-13.57312-4.21376-21.06368-4.21376z m-3.44064 53.36576c0.51712-0.33792 1.94048-0.90112 3.44064-0.90112l0.16896 0.00512 105.8304 58.48576c-2.55488 5.9392-14.24384 34.72896-14.24384 64.768 0 89.84064 70.76352 163.47136 159.47776 168.06912 1.26976 7.05024 8.20224 46.70976 8.20224 76.47232 0 29.75744-6.93248 69.4016-8.20224 76.47232-88.71424 4.60288-159.47776 78.22848-159.47776 168.06912 0 30.08 11.71456 58.91072 14.25408 64.79872l-104.10496 57.84064c-0.11264 0.00512-0.27136 0.01536-0.4352 0.01536-1.77152 0-3.4304-0.64-3.97312-1.01376-1.75616-1.79712-16.8448-17.09568-38.51264-32.34816-32.09216-22.5792-62.42816-34.0224-90.17856-34.0224-28.032 0-58.624 11.6736-90.91072 34.69824-21.79584 15.54432-36.97152 31.13472-38.71232 32.96256-0.55808 0.37888-2.23232 1.03936-4.02432 1.03936l-0.37888-0.01024-107.8272-59.22304c2.58048-6.01088 14.22848-34.74944 14.22848-64.73728 0-89.84064-70.75328-163.46624-159.47264-168.07424-1.28-7.05536-8.21248-46.70976-8.21248-76.47232 0-29.75232 6.93248-69.39136 8.21248-76.47232 88.71936-4.59776 159.47264-78.21824 159.47264-168.05888 0-30.14656-11.76064-59.0336-14.26944-64.8448l102.05696-57.06752a7.1168 7.1168 0 0 1 3.63008 0.8704c1.90976 2.048 17.15712 18.18112 39.1168 34.26816 32.72192 23.9872 63.8208 36.1472 92.42624 36.1472 28.88192 0 60.22144-12.3904 93.1328-36.82816 22.08256-16.39936 37.39648-32.83968 39.28576-34.90816zM510.03904 229.96992c-85.05344 0-154.25024 69.20192-154.25024 154.25536 0 85.05344 69.1968 154.25024 154.25024 154.25024 85.0688 0 154.26048-69.1968 154.26048-154.25024s-69.19168-154.25536-154.26048-154.25536z m0 256.04608c-56.12032 0-101.7856-45.66528-101.7856-101.7856 0-56.12544 45.66016-101.7856 101.7856-101.7856 56.13568 0 101.80096 45.66016 101.80096 101.7856 0 56.12032-45.66528 101.7856-101.80096 101.7856z"  horiz-adv-x="1024" />

    
    <glyph glyph-name="lihe" unicode="&#58882;" d="M992 640H781.9c0.5 0.2 1 0.3 1.6 0.5 63.4 20.2 106.3 49 127.5 85.6 18.4 31.7 18.6 67.9 0.6 99.2-12.3 21.4-32.3 39.3-57.8 51.9C828.8 889.5 799.6 896 769.3 896c-44.1 0-87-13.6-127.6-40.3-31.1-20.5-60.8-48.8-88.2-84.1-16.4-21.1-30.1-42.2-40.8-60.6-10.8 18.4-24.4 39.5-40.8 60.6-27.4 35.3-57.1 63.6-88.2 84.1C343.1 882.4 300.2 896 256 896c-30.3 0-59.6-6.5-84.5-18.8-25.5-12.6-45.4-30.5-57.8-51.9-18-31.3-17.8-67.4 0.6-99.2 21.3-36.7 64.2-65.5 127.5-85.6 0.5-0.2 1-0.3 1.6-0.5H32c-17.7 0-32-14.3-32-32v-192c0-17.7 14.3-32 32-32h32v-480c0-17.7 14.3-32 32-32h832c17.7 0 32 14.3 32 32V62.9c0 17.7-14.3 32-32 32s-32-14.3-32-32V-64H128V384h167.4c17.7 0 32 14.3 32 32s-14.3 32-32 32H64V576h896v-128H569.2c-17.7 0-32-14.3-32-32s14.3-32 32-32H896v-134.1c0-17.7 14.3-32 32-32s32 14.3 32 32V384h32c17.7 0 32 14.3 32 32V608c0 17.7-14.3 32-32 32z m-388 92.4C655.5 798.5 711.1 832 769.3 832c44.6 0 75.8-19.4 86.8-38.7 6.7-11.6 6.5-23.1-0.5-35.1-7.3-12.6-29-36.8-91.6-56.8-51.7-16.5-118.7-26.1-199.6-28.7 10.1 17.7 23.3 38.7 39.6 59.7z m-434.3 25.8c-7 12.1-7.2 23.6-0.5 35.1C180.3 812.6 211.4 832 256 832c99.3 0 170.6-99.2 204.7-159.3-80.8 2.6-147.8 12.3-199.5 28.7-62.5 20-84.2 44.2-91.5 56.8zM401.4 448c-17.7 0-32-14.3-32-32s14.3-32 32-32h46.8c17.7 0 32 14.3 32 32s-14.3 32-32 32h-46.8zM928 158.9m-32 0a32 32 0 1 1 64 0 32 32 0 1 1-64 0Z"  horiz-adv-x="1024" />

    
    <glyph glyph-name="yigouxuan" unicode="&#58942;" d="M196.923077 896h630.153846a196.923077 196.923077 0 0 0 196.923077-196.923077v-630.153846a196.923077 196.923077 0 0 0-196.923077-196.923077H196.923077a196.923077 196.923077 0 0 0-196.923077 196.923077V699.076923a196.923077 196.923077 0 0 0 196.923077 196.923077z m0-78.769231a118.153846 118.153846 0 0 1-118.153846-118.153846v-630.153846a118.153846 118.153846 0 0 1 118.153846-118.153846h630.153846a118.153846 118.153846 0 0 1 118.153846 118.153846V699.076923a118.153846 118.153846 0 0 1-118.153846 118.153846H196.923077z m584.900923-258.205538a36.509538 36.509538 0 0 0 1.260308-51.633231l-299.480616-313.107692c-0.118154-0.157538-0.393846-0.236308-0.630154-0.472616l-0.393846-0.551384c-2.166154-2.126769-4.726154-3.229538-7.207384-4.726154-1.575385-0.866462-2.796308-2.166154-4.411077-2.835692a35.800615 35.800615 0 0 0-27.490462-0.07877c-1.260308 0.512-2.284308 1.614769-3.544615 2.284308-2.756923 1.457231-5.592615 2.835692-8.034462 5.12-0.196923 0.157538-0.275692 0.433231-0.512 0.669538-0.196923 0.118154-0.393846 0.196923-0.551384 0.354462l-150.843077 156.593231a36.430769 36.430769 0 0 0 0.945231 51.633231 36.391385 36.391385 0 0 0 51.63323-0.945231l124.455385-129.102769 273.092923 285.61723a36.548923 36.548923 0 0 0 51.712 1.181539z"  horiz-adv-x="1024" />

    
    <glyph glyph-name="caihua" unicode="&#58885;" d="M446.4 613.2c-3.7 0-7.4 1.6-10 4.7-0.1 0.1-14.2 16.6-38.9 28.9-9.1 4.5-18.5 7.9-28 10.2-7 1.7-11.3 8.7-9.6 15.7 1.7 7 8.7 11.3 15.7 9.6 11.4-2.7 22.7-6.8 33.5-12.2 29.9-14.8 46.6-34.7 47.3-35.6 4.6-5.5 3.8-13.7-1.7-18.3-2.5-2-5.4-3-8.3-3zM688.5 331.5c-3 0-6 1-8.4 3.1-5.5 4.6-6.1 12.8-1.5 18.3 11.3 13.3 17.1 56.4-1.9 99.5-13.4 30.5-49.8 82.1-142.2 85.3-96.9 0-120.4-59.3-121.3-61.8-2.5-6.7-10-10.1-16.7-7.6-6.7 2.5-10.2 9.8-7.7 16.6 1.2 3.2 29.8 78.9 146.2 78.9C642 560 684.6 499 700.5 462.9c22.6-51.3 16.7-104.8-2.1-126.9-2.5-2.9-6.2-4.5-9.9-4.5zM751.2 327.3c-5.1 0-10 3.1-12.1 8.2-2.7 6.7 0.5 14.2 7.2 16.9 0.7 0.3 76.8 31.8 94 98.5 1.8 6.9 8.9 11.1 15.8 9.3 6.9-1.8 11.1-8.9 9.3-15.8-20.4-79.6-105.7-114.7-109.3-116.1-1.6-0.7-3.3-1-4.9-1zM449.8 43.3c-0.6 0-1.1 0-1.7 0.1-7.1 0.9-12.1 7.4-11.2 14.6 4.2 32.2-45.2 106.2-77.4 145.2-4.6 5.5-3.8 13.7 1.8 18.3 5.5 4.6 13.7 3.8 18.3-1.8 9.2-11.2 90-111.3 83-165.1-0.8-6.5-6.4-11.3-12.8-11.3zM515.4 35c-1.6 0-3.2 0.3-4.8 0.9-6.7 2.7-9.9 10.2-7.2 16.9 7.3 18.3 0.4 96.8-5.7 142-1 7.1 4 13.7 11.1 14.6 7.2 0.9 13.7-4 14.6-11.1 2.8-20.7 16-125.2 4-155.1-1.9-5.2-6.8-8.2-12-8.2zM610.3 48.1c-6.8 0-12.5 5.3-13 12.2-3.4 53.1 38.2 152.1 39.9 156.3 2.8 6.6 10.4 9.7 17 6.9 6.6-2.8 9.7-10.4 6.9-17-0.4-1-40.9-97.5-37.9-144.5 0.5-7.2-5-13.3-12.1-13.8-0.3-0.1-0.5-0.1-0.8-0.1zM734 177.1c-50.3 0-97.2 23.2-127.7 63.1-25.2-21.2-56.5-34.3-89.5-37.2-39.8-3.5-78.5 7.5-110 31.1-13.5-14.3-29.6-26.1-47.4-34.6-17-8.2-35.3-13.3-54.4-15.1l-1.1-0.1c-2.8-0.2-5.6-0.4-8.3-0.5-83.1-3.1-155.8 59.2-165.7 141.7-0.2 1.3-0.4 3.2-0.6 5.2-5.1 58.3 20.9 113.4 68.2 146.3-3.1 10.3-5.1 21-6 31.8-7.8 88.5 57.9 166.9 146.5 174.6 19.3 1.7 38.5-0.1 57-5.2 27.1 30.9 65.6 50.5 106.8 54.1 61 5.4 119.1-24 151-75.4 10.5 3.2 21.3 5.3 32.2 6.2 92.9 8.2 175.4-65.2 184-163.6 1.9-22.1 0.1-43.9-5.6-64.9 18-24 28.8-52.3 31.4-82.4 3.8-42.9-9.4-84.7-37.1-117.6-27.7-33-66.5-53.2-109.4-57-4.8-0.3-9.6-0.5-14.3-0.5zM610.7 280.9l8.8-14c27.1-43.5 75.6-67.7 126.6-63.2 36 3.2 68.6 20.1 91.8 47.8 23.2 27.7 34.2 62.7 31.1 98.7-2.4 27.2-12.7 52.7-29.9 73.7l-4.4 5.4 2.1 6.7c6.1 19.8 8.3 40.5 6.4 61.6-7.4 84.1-77.3 146.8-155.8 139.9-12.3-1.1-24.3-3.8-35.8-8.2l-10.7-4.1-5.4 10.1c-25.5 48.1-77 76.1-131.3 71.4-37.1-3.3-71.5-21.9-94.4-51.2l-5.7-7.3-8.7 3c-17.7 6-36.2 8.2-55 6.6-74.3-6.5-129.4-72.2-122.9-146.5 1.1-12 3.7-23.8 7.8-34.9l3.8-10.1-9.2-5.6c-44.4-26.9-69.1-75.7-64.6-127.4 0.1-1.4 0.2-2.6 0.4-3.8 8.4-69.8 69.6-122.1 139.1-119.4 2.3 0.1 4.6 0.2 7 0.4l1 0.1c16 1.5 31.3 5.8 45.5 12.6 18.2 8.7 34.4 21.6 46.9 37.3l8.5 10.7 10.2-9c27.9-24.5 63.7-36.2 100.8-33 32.1 2.8 62.1 17 84.7 40.1l11.3 11.6z"  horiz-adv-x="1024" />

    
    <glyph glyph-name="huabanfuben" unicode="&#58898;" d="M837 653.2H187c-23.2 0-42-18.8-42-42v-454.4c0-23.2 18.8-42 42-42h650c23.2 0 42 18.8 42 42V611.2c0 23.2-18.8 42-42 42z m20-488.3c0-14.9-12.1-27.1-27.1-27.1H194.1c-14.9 0-27.1 12.1-27.1 27.1V603.1c0 14.9 12.1 27.1 27.1 27.1H830c14.9 0 27.1-12.1 27.1-27.1v-438.2zM193.7 630.2h636.6c14.7 0 26.7-11.9 26.7-26.7v-439c0-14.7-11.9-26.7-26.7-26.7H193.7c-14.7 0-26.7 11.9-26.7 26.7v439c0 14.7 12 26.7 26.7 26.7zM674.9 496.7H267.6c-22.7 0-41-18.4-41-41v-250.9c0-22.7 18.4-41 41-41h407.3c22.7 0 41 18.4 41 41V455.7c0 22.6-18.4 41-41 41z m30-285.1c0-20.9-16.9-37.8-37.8-37.8H276.4c-20.9 0-37.8 16.9-37.8 37.8V448.9c0 20.9 16.9 37.8 37.8 37.8h390.7c20.9 0 37.8-16.9 37.8-37.8v-237.3zM276.4 486.7h390.7c20.9 0 37.8-16.9 37.8-37.8v-237.3c0-20.9-16.9-37.8-37.8-37.8H276.4c-20.9 0-37.8 16.9-37.8 37.8V448.9c0 20.9 16.9 37.8 37.8 37.8zM228.5 595.3h485c6 0 10.9-4.9 10.9-10.9v-6.4c0-6-4.9-10.9-10.9-10.9h-485c-6 0-10.9 4.9-10.9 10.9v6.4c0 6 4.9 10.9 10.9 10.9zM570.4 249.79999999999995l36 36c1.9 1.9 4.9 1.9 6.7 0l0.8-0.8c1.9-1.9 1.9-4.9 0-6.7l-36-36c-1.9-1.9-4.9-1.9-6.7 0l-0.8 0.8c-1.9 1.9-1.9 4.9 0 6.7zM596.2 224l36 36c1.9 1.9 4.9 1.9 6.7 0l0.8-0.8c1.9-1.9 1.9-4.9 0-6.7l-36-36c-1.9-1.9-4.9-1.9-6.7 0l-0.8 0.8c-1.8 1.8-1.8 4.8 0 6.7zM566.8 220.70000000000005l68.7 68.7c1.9 1.9 4.9 1.9 6.7 0l0.8-0.8c1.9-1.9 1.9-4.9 0-6.7l-68.7-68.7c-1.9-1.9-4.9-1.9-6.7 0l-0.8 0.8c-1.8 1.8-1.8 4.8 0 6.7zM796.4 370.4c-24.2 0-43.8-19.5-43.8-43.8 0-24.2 19.5-43.8 43.8-43.8s43.8 19.5 43.8 43.8c0 24.3-19.8 43.8-43.8 43.8z m0-79.8c-20 0-36.1 16.3-36.1 36.1s16.3 36.1 36.1 36.1c20 0 36.1-16.3 36.1-36.1s-16-36.1-36.1-36.1zM796.4 326.9m-36.1 0a36.1 36.1 0 1 1 72.2 0 36.1 36.1 0 1 1-72.2 0ZM796.4 247.70000000000005c-24.2 0-43.8-19.5-43.8-43.8 0-24.2 19.5-43.8 43.8-43.8s43.8 19.5 43.8 43.8c0 24.3-19.8 43.8-43.8 43.8z m0-79.9c-20 0-36.1 16.3-36.1 36.1s16.3 36.1 36.1 36.1c20 0 36.1-16.3 36.1-36.1 0-19.7-16-36.1-36.1-36.1zM796.4 204.20000000000005m-36.1 0a36.1 36.1 0 1 1 72.2 0 36.1 36.1 0 1 1-72.2 0ZM796.4 492.7c-24.2 0-43.8-19.5-43.8-43.8s19.5-43.8 43.8-43.8 43.8 19.5 43.8 43.8-19.8 43.8-43.8 43.8z m0-79.9c-20 0-36.1 16.3-36.1 36.1s16.3 36.1 36.1 36.1c20 0 36.1-16.3 36.1-36.1s-16-36.1-36.1-36.1zM796.4 449.2m-36.1 0a36.1 36.1 0 1 1 72.2 0 36.1 36.1 0 1 1-72.2 0ZM837.1 609.4h-75.5c-7 0-12.7-5.7-12.7-12.7v-31c0-7 5.7-12.7 12.7-12.7h75.5c7 0 12.7 5.7 12.7 12.7v31c0 7-5.7 12.7-12.7 12.7z m9.7-42.5c0-6-4.9-10.9-10.9-10.9h-73c-6 0-10.9 4.9-10.9 10.9v28.6c0 6 4.9 10.9 10.9 10.9h73c6 0 10.9-4.9 10.9-10.9v-28.6zM762.8 606.4h73c6.1 0 11-4.9 11-11v-28.5c0-6.1-4.9-11-11-11h-73c-6.1 0-11 4.9-11 11v28.5c0.1 6.1 5 11 11 11zM796.4 472.9c17.1 0 31.8-12.3 34.7-29.2 0.3 2 0.5 4 0.5 6.1 0 19.5-15.8 35.2-35.2 35.2-19.5 0-35.2-15.8-35.2-35.2 0-2 0.2-4.1 0.5-6.1 3 16.9 17.6 29.2 34.7 29.2zM796.4 350.29999999999995c17.1 0 31.8-12.3 34.7-29.2 0.3 2 0.5 4 0.5 6.1 0 19.5-15.8 35.2-35.2 35.2-19.5 0-35.2-15.8-35.2-35.2 0-2 0.2-4.1 0.5-6.1 3 16.8 17.6 29.2 34.7 29.2zM796.4 228c17.1 0 31.8-12.3 34.7-29.2 0.3 2 0.5 4 0.5 6.1 0 19.5-15.8 35.2-35.2 35.2-19.5 0-35.2-15.8-35.2-35.2 0-2 0.2-4.1 0.5-6.1 3 16.9 17.6 29.2 34.7 29.2z"  horiz-adv-x="1024" />

    
    <glyph glyph-name="tiaoweipin" unicode="&#58921;" d="M926.5 390.1c-1.9 2.9-5.1 4.7-8.5 4.7H704.8v80.9c0 1.6-0.4 3.2-1.1 4.6L653.4 578v59.7c0 5.6-4.5 10.1-10.1 10.1H564l-42.2 82v59.7c0 5.6-4.5 10.1-10.1 10.1h-120c-5.6 0-10.1-4.5-10.1-10.1v-59.7L349.1 667l-36 52.3v58.1c0 5.6-4.5 10.1-10.1 10.1H144.7c-5.6 0-10.1-4.5-10.1-10.1v-58.1l-66-95.8c-1.2-1.7-1.8-3.7-1.8-5.7v-638c0-5.6 4.5-10.1 10.1-10.1h841c5.1 0 9.4 3.8 10 8.9 1.2 10.4 30.4 254.2 30.4 306.6 0.1 54.6-30.5 102.9-31.8 104.9zM633.1 585.6h-99.8v42h99.8v-42zM401.7 779.4h99.8v-42h-99.8v42z m-246.8-12.1h138v-41h-138v41zM87.1 614.6l63 91.4h147.6l41-59.4-7.5-14.5c-0.7-1.4-1.1-3-1.1-4.6v-637.6h-243V614.6zM350.2 625l47.5 92.2h107.7l35.8-69.4h-18c-5.6 0-10.1-4.5-10.1-10.1V578l-50.3-97.7c-0.7-1.4-1.1-3-1.1-4.6v-485.8H350.2V625z m131.6-151.8l47.5 92.2H637l47.5-92.2v-78.4h-94.2c-3 0-5.9-1.3-7.8-3.7l-41-49.6c-2.2-2.7-2.9-6.3-1.8-9.6 9.3-27.9 24-76.9 24-89.9 0-33.6-15.6-209.8-19.4-252.1h-62.5V473.2z m427.1-483.3H564.6c4.1 46 19.3 217.6 19.3 252.1 0 18-17.3 72.7-23.2 91l34.4 41.6h317.1c7.2-12.7 26-49.8 26-89.4 0-45.7-23.9-250-29.3-295.3z"  horiz-adv-x="1024" />

    
    <glyph glyph-name="fangbianmian_" unicode="&#58915;" d="M43.949683 395.589066c55.430256-49.196818 198.759877-75.925642 366.904895-75.925642S721.974148 346.352796 777.542486 395.490436l-33.632949-391.010152v-0.532604c0-61.979311-149.582786-112.22161-334.120167-112.22161s-334.120167 50.242299-334.120167 112.241336a38.682823 38.682823 0 0 0 0.572056 6.509603L43.949683 395.589066m-23.78964 47.480649l4.122749-49.137639 32.114041-382.863285a57.501493 57.501493 0 0 1-0.4537-7.121111c0-27.616497 19.311822-67.068637 111.314211-98.058292 65.09603-21.856485 151.22005-33.889388 242.630657-33.889388s177.534627 12.032902 242.630656 33.889388c72.296045 24.282792 99.715282 53.871896 108.118588 78.904278h1.538633l0.808769 9.271253a59.178209 59.178209 0 0 1 0.828495 9.58687l33.534318 390.181657 4.241105 49.196817-36.966654-32.745275c-49.315174-43.71297-184.872724-70.875768-353.668703-70.875768S106.50105 366.591744 57.205602 410.42307l-37.045559 32.646645zM410.7954 571.604785c107.684614 0 208.642638-13.808249 284.292115-38.781453C730.140741 521.204677 758.526555 507.396429 777.207143 492.838589c11.263586-8.817553 24.697039-22.448267 24.697039-37.321724 0-10.435091-6.450425-21.461964-19.193466-32.725549-26.156768-23.178132-75.748107-44.146944-139.601394-59.059853-68.05494-15.899212-148.35977-24.302518-232.27447-24.302517s-164.31816 8.423032-232.392826 24.322244c-63.892739 14.932635-113.444626 35.940899-139.581669 59.178208-12.683863 11.24386-19.094835 22.23128-19.094835 32.646646 0 14.893183 13.433453 28.523897 24.697039 37.321723C63.123423 507.396429 91.450059 521.204677 126.503284 532.823332c75.649477 25.012656 176.607501 38.781453 284.292116 38.781453m0 19.72607C183.925873 591.330855 0 530.515382 0 455.497139c0-16.668529 9.113444-32.646645 25.643891-47.342567 58.172179-51.64285 208.622912-88.43197 385.052878-88.43197s326.703165 36.729942 384.954249 88.33334c16.688255 14.794552 25.841151 30.792395 25.841151 47.500376 0 74.959065-183.925873 135.833715-410.7954 135.833715zM1065.030225 835.776309a17.852093 17.852093 0 0 1-3.096993-0.276165L218.82129 686.903662a17.753463 17.753463 0 1 1 6.17426-34.974321l843.092216 148.616208a17.753463 17.753463 0 0 1-3.057541 35.23076zM1054.397873 896a17.753463 17.753463 0 0 1-3.096993-0.276165L208.188939 747.068174a17.753463 17.753463 0 1 1 6.17426-34.974321l843.092215 148.675387A17.753463 17.753463 0 0 1 1054.397873 896zM226.396101 837.906725a9.863035 9.863035 0 0 1-4.122749-0.907399c-2.76165-1.262468-67.423706-31.975959-67.423705-106.244611 0-28.800062 18.798944-45.36996 35.408294-60.085608 14.10414-12.466876 26.294851-23.23731 26.294851-39.590222 0-28.168827-11.579203-40.221456-24.99293-54.207239-12.762767-13.295371-27.221976-28.346362-27.221976-57.323959s15.267978-43.16064 27.616497-54.542582c9.705226-9.014814 15.189074-14.557839 15.189074-23.671284 0-18.463601-9.744678-30.358421-20.061413-42.963379-10.612625-12.960028-22.645528-27.616497-22.645528-49.591339a9.863035 9.863035 0 0 1 19.72607 0c0 14.893183 8.423032 25.190191 18.187436 37.085011 11.500299 14.044962 24.539231 29.944174 24.539231 55.449981 0 18.26634-11.421394 28.85924-21.48169 38.229123-10.908516 10.1392-21.225251 19.72607-21.225251 40.083374 0 21.047716 9.58687 31.029108 21.698677 43.673518 14.281674 14.873456 30.476778 31.758972 30.476777 67.857679 0 25.249369-17.51675 40.714608-32.962262 54.365048S174.575716 710.851111 174.575716 730.754715c0 61.446707 53.714088 87.287858 55.982586 88.353066a9.863035 9.863035 0 0 1-4.162201 18.798944zM277.683882 837.906725a9.863035 9.863035 0 0 1-4.122749-0.907399c-2.76165-1.262468-67.423706-31.975959-67.423705-106.244611 0-28.800062 18.798944-45.36996 35.408294-60.085608 14.10414-12.466876 26.294851-23.23731 26.294851-39.590222 0-28.168827-11.579203-40.221456-24.99293-54.207239-12.762767-13.295371-27.221976-28.346362-27.221976-57.323959s15.267978-43.16064 27.616497-54.542582c9.705226-9.014814 15.189074-14.557839 15.189074-23.671284 0-18.463601-9.744678-30.358421-20.061413-42.963379-10.612625-12.960028-22.645528-27.616497-22.645528-49.591339a9.863035 9.863035 0 0 1 19.72607 0c0 14.893183 8.423032 25.190191 18.187436 37.085011 11.500299 14.044962 24.539231 29.944174 24.539231 55.449981 0 18.26634-11.421394 28.85924-21.48169 38.229123-10.908516 10.1392-21.225251 19.72607-21.225251 40.083374 0 21.047716 9.58687 31.029108 21.698677 43.673518 14.281674 14.873456 30.476778 31.758972 30.476777 67.857679 0 25.249369-17.51675 40.714608-32.962262 54.365048s-28.740883 25.387452-28.740884 45.36996c0 61.446707 53.714088 87.287858 55.982586 88.353066a9.863035 9.863035 0 0 1-4.162201 18.798944zM328.971663 837.906725a9.863035 9.863035 0 0 1-4.122749-0.907399c-2.76165-1.262468-67.423706-31.975959-67.423705-106.244611 0-28.800062 18.798944-45.36996 35.408294-60.085608 14.10414-12.466876 26.294851-23.23731 26.294851-39.590222 0-28.168827-11.579203-40.221456-24.99293-54.207239-12.762767-13.295371-27.221976-28.346362-27.221976-57.323959s15.267978-43.16064 27.616497-54.542582c9.705226-9.014814 15.189074-14.557839 15.189074-23.671284 0-18.463601-9.744678-30.358421-20.061413-42.963379-10.612625-12.960028-22.645528-27.616497-22.645528-49.591339a9.863035 9.863035 0 0 1 19.72607 0c0 14.893183 8.423032 25.190191 18.187436 37.085011 11.500299 14.044962 24.539231 29.944174 24.539231 55.449981 0 18.26634-11.421394 28.85924-21.48169 38.229123-10.908516 10.1392-21.225251 19.72607-21.225251 40.083374 0 21.047716 9.58687 31.029108 21.698677 43.673518 14.281674 14.873456 30.476778 31.758972 30.476777 67.857679 0 25.249369-17.51675 40.714608-32.962262 54.365048s-28.740883 25.387452-28.740884 45.36996c0 61.446707 53.714088 87.287858 55.982586 88.353066a9.863035 9.863035 0 0 1-4.162201 18.798944zM380.259444 837.906725a9.863035 9.863035 0 0 1-4.122749-0.907399c-2.76165-1.262468-67.423706-31.975959-67.423705-106.244611 0-28.800062 18.798944-45.36996 35.408295-60.085608 14.10414-12.466876 26.294851-23.23731 26.29485-39.590222 0-28.168827-11.579203-40.221456-24.99293-54.207239-12.762767-13.295371-27.221976-28.346362-27.221976-57.323959s15.267978-43.16064 27.616497-54.542582c9.705226-9.014814 15.189074-14.557839 15.189074-23.671284 0-18.463601-9.744678-30.358421-20.061413-42.963379-10.612625-12.960028-22.645528-27.616497-22.645528-49.591339a9.863035 9.863035 0 0 1 19.72607 0c0 14.893183 8.423032 25.190191 18.187436 37.085011 11.500299 14.044962 24.539231 29.944174 24.539231 55.449981 0 18.26634-11.421394 28.85924-21.48169 38.229123-10.908516 10.1392-21.225251 19.72607-21.225251 40.083374 0 21.047716 9.58687 31.029108 21.698677 43.673518 14.281674 14.873456 30.476778 31.758972 30.476777 67.857679 0 25.249369-17.51675 40.714608-32.962262 54.365048s-28.740883 25.387452-28.740884 45.36996c0 61.446707 53.714088 87.287858 55.982586 88.353066a9.863035 9.863035 0 0 1-4.162201 18.798944zM431.547225 837.906725a9.863035 9.863035 0 0 1-4.122748-0.907399c-2.76165-1.262468-67.423706-31.975959-67.423706-106.244611 0-28.800062 18.798944-45.36996 35.408295-60.085608 14.10414-12.466876 26.294851-23.23731 26.29485-39.590222 0-28.168827-11.579203-40.221456-24.99293-54.207239-12.762767-13.295371-27.221976-28.346362-27.221976-57.323959s15.267978-43.16064 27.616498-54.542582c9.705226-9.014814 15.189074-14.557839 15.189073-23.671284 0-18.463601-9.744678-30.358421-20.061413-42.963379-10.612625-12.960028-22.645528-27.616497-22.645528-49.591339a9.863035 9.863035 0 0 1 19.72607 0c0 14.893183 8.423032 25.190191 18.187436 37.085011 11.500299 14.044962 24.539231 29.944174 24.539231 55.449981 0 18.26634-11.421394 28.85924-21.48169 38.229123-10.908516 10.1392-21.225251 19.72607-21.225251 40.083374 0 21.047716 9.58687 31.029108 21.698677 43.673518 14.281674 14.873456 30.476778 31.758972 30.476777 67.857679 0 25.249369-17.51675 40.714608-32.962262 54.365048s-28.740883 25.387452-28.740884 45.36996c0 61.446707 53.714088 87.287858 55.982586 88.353066a9.863035 9.863035 0 0 1-4.162201 18.798944zM482.835006 837.906725a9.863035 9.863035 0 0 1-4.122748-0.907399c-2.76165-1.262468-67.423706-31.975959-67.423706-106.244611 0-28.800062 18.798944-45.36996 35.408295-60.085608 14.10414-12.466876 26.294851-23.23731 26.29485-39.590222 0-28.168827-11.579203-40.221456-24.99293-54.207239-12.762767-13.295371-27.221976-28.346362-27.221976-57.323959s15.267978-43.16064 27.616498-54.542582c9.705226-9.014814 15.189074-14.557839 15.189073-23.671284 0-18.463601-9.744678-30.358421-20.061413-42.963379-10.612625-12.960028-22.645528-27.616497-22.645528-49.591339a9.863035 9.863035 0 0 1 19.72607 0c0 14.893183 8.423032 25.190191 18.187436 37.085011 11.500299 14.044962 24.539231 29.944174 24.539231 55.449981 0 18.26634-11.421394 28.85924-21.48169 38.229123-10.908516 10.1392-21.225251 19.72607-21.225251 40.083374 0 21.047716 9.58687 31.029108 21.698677 43.673518 14.281674 14.873456 30.476778 31.758972 30.476777 67.857679 0 25.249369-17.51675 40.714608-32.962262 54.365048s-28.740883 25.387452-28.740884 45.36996c0 61.446707 53.714088 87.287858 55.982586 88.353066a9.863035 9.863035 0 0 1-4.162201 18.798944zM534.122787 837.906725a9.863035 9.863035 0 0 1-4.122748-0.907399c-2.76165-1.262468-67.423706-31.975959-67.423706-106.244611 0-28.800062 18.798944-45.36996 35.408295-60.085608 14.10414-12.466876 26.294851-23.23731 26.29485-39.590222 0-28.168827-11.579203-40.221456-24.99293-54.207239-12.762767-13.295371-27.221976-28.346362-27.221976-57.323959s15.267978-43.16064 27.616498-54.542582c9.705226-9.014814 15.189074-14.557839 15.189073-23.671284 0-18.463601-9.744678-30.358421-20.061413-42.963379-10.612625-12.960028-22.645528-27.616497-22.645528-49.591339a9.863035 9.863035 0 0 1 19.72607 0c0 14.893183 8.423032 25.190191 18.187436 37.085011 11.500299 14.044962 24.539231 29.944174 24.539231 55.449981 0 18.26634-11.421394 28.85924-21.48169 38.229123-10.908516 10.1392-21.225251 19.72607-21.225251 40.083374 0 21.047716 9.58687 31.029108 21.698677 43.673518 14.281674 14.873456 30.476778 31.758972 30.476777 67.857679 0 25.249369-17.51675 40.714608-32.962262 54.365048s-28.740883 25.387452-28.740884 45.36996c0 61.446707 53.714088 87.287858 55.982586 88.353066a9.863035 9.863035 0 0 1-4.162201 18.798944z"  horiz-adv-x="1082" />

    
    <glyph glyph-name="rou" unicode="&#58886;" d="M890.7 578.7c18 0.6 35.7 8.7 49.8 22.8 28.5 28.5 25.5 77.9-6.7 110.1-15.3 15.3-34.9 24.5-55.2 26.1-4.4 0.3-8.7 0.3-12.9-0.1 0.4 4.2 0.4 8.5 0.1 12.9-1.6 20.3-10.8 39.9-26.1 55.2-32.2 32.2-81.6 35.2-110.1 6.7-26.5-26.5-29.9-62.1-10.3-91l-54.2-54.1c-34.7 29.3-68.5 53.9-99.1 72.1-59.6 35.4-100.6 42.6-121.8 21.4-0.7-0.7-1.3-1.4-1.8-2.1l-314.3-313C107.4 425 115 384.4 150.7 325c18.6-31 43.7-65.1 73.3-100-1.5-0.7-2.8-1.7-4.1-2.9l-45.2-45.2c-28.9 19.6-64.5 16.2-91-10.3-14.1-14.1-21-33.6-19.4-54.9 1.6-20.3 10.8-39.9 26.1-55.2 15.3-15.3 34.5-25 54-27.2 4.5-0.5 9-0.7 13.4-0.4-0.3-4.2-0.3-8.5 0.1-12.9 1.9-19.3 11.4-38.4 26.7-53.7 15.3-15.3 34.9-24.5 55.2-26.1 2.1-0.2 4.1-0.2 6.1-0.2 18.9 0 36 6.9 48.8 19.6 26.5 26.5 29.9 62.1 10.3 91l45.2 45.2c1 1 1.9 2.2 2.5 3.3 37.8-32.6 74.8-60.1 108.1-79.9 37.3-22.2 67.3-33.3 89.8-33.3 13.4 0 24.1 4 32 11.9L898.5 309c20.7 20.7 13.1 61.2-22.6 120.6-20 33.3-47.5 70.3-80.2 108l53.5 53.4c12.8-8.5 26.9-12.8 41.5-12.3z m-542.3 64.9z m-20.8-529.1L272.1 59c-6.3-6.3-6.3-16.4 0-22.6 21.4-21.4 14-44 0-58.1-7.4-7.4-18-11-29.8-10.1-12.7 1-25.2 7-35 16.8-20.1 20-23.5 46.9-7.9 62.4 3.1 3.1 4.7 7.2 4.7 11.3s-1.6 8.2-4.7 11.3c-6.3 6.3-16.4 6.3-22.7 0-9.1-9.1-20.6-9.9-28.6-9-12.4 1.4-24.9 7.9-35.1 18.1-9.9 9.9-15.9 22.3-16.8 35-0.9 11.8 2.7 22.4 10.1 29.8 14 14 36.7 21.4 58.1 0 6.3-6.3 16.4-6.3 22.7 0l55.5 55.5c0.7 0.7 1.3 1.4 1.8 2.2 14.3-15.9 29.4-31.8 45.2-47.6 13.2-13.2 26.5-25.9 39.8-38l-1.8-1.5z m282.9-59.8z m67.8 56.5z m170.3 302.1c33.4-55.6 30.9-78 27.4-81.5L737 193.2c-0.5-0.4-1.1-0.8-1.6-1.3-0.2-0.2-17.4-14.2-53.4 13.8-7 5.4-17 4.2-22.5-2.8-5.4-7-4.2-17 2.8-22.5 15-11.7 28.5-18.3 40.2-21.5l-31.7-31.6c-2.1 0.3-4.9 0.9-8.5 2-11.3 3.5-30.5 12.6-58 35.8-6.8 5.7-16.9 4.9-22.6-1.9-5.7-6.8-4.9-16.9 1.9-22.6 25.3-21.4 45.7-33 61.3-39.1L613.6 70l0.1 0.4h0.1c-0.4 0.1-37.5 8.6-90.1 53-6.8 5.7-16.9 4.9-22.6-1.9-5.7-6.8-4.9-16.9 1.9-22.6 36.9-31.1 67.3-46.5 85.6-53.8L560 16.6c-5.8-5.8-32.6-3.5-82.8 26.3-49.6 29.5-108.2 77-165.1 133.8-56.5 56.5-104.1 115.1-134 164.8-33.4 55.6-30.9 78-27.4 81.5l139.8 139.3c0.2 0.2 0.5 0.4 0.7 0.6 0.2 0.2 17.4 14.2 53.4-13.8 2.9-2.3 6.4-3.4 9.8-3.4 4.8 0 9.5 2.1 12.6 6.2 5.4 7 4.2 17-2.8 22.5-14.9 11.6-28.4 18.2-40.1 21.5l31.8 31.7c2.1-0.3 4.9-0.9 8.3-2 11.3-3.5 30.5-12.6 58-35.8 3-2.5 6.7-3.8 10.3-3.8 4.6 0 9.1 1.9 12.2 5.7 5.7 6.8 4.9 16.9-1.9 22.6-25.2 21.3-45.6 32.9-61.1 39.1l31.1 31c0.4-0.1 37.5-8.6 90-53 3-2.5 6.7-3.8 10.3-3.8 4.6 0 9.1 1.9 12.2 5.7 5.7 6.8 4.9 16.9-1.9 22.6-36.7 31-67.1 46.4-85.4 53.8l28.5 28.4 1 1c7.6 4.6 34.2 1.1 81.7-27.1 49.6-29.5 108.2-77 165.1-133.8 56.8-56.7 104.4-115.2 134.3-164.9zM837 624.1l-62.5-62.4c-12 13.1-24.5 26.1-37.4 39.1-15.9 15.9-32 31.1-48 45.5l62.9 62.9c6.3 6.3 6.3 16.4 0 22.6-21.4 21.4-14 44 0 58.1 16 16 45.1 13 64.8-6.7 19.7-19.7 22.7-48.8 6.7-64.8-3.1-3.1-4.7-7.2-4.7-11.3 0-4.1 1.6-8.2 4.7-11.3 6.3-6.3 16.4-6.3 22.7 0 7.4 7.4 18 11 29.8 10.1 12.7-1 25.2-7 35-16.8 19.7-19.7 22.7-48.8 6.7-64.8-8.3-8.3-18.3-13.1-28.2-13.4-10.4-0.3-20.8 4.3-29.9 13.4-3 3-7.1 4.7-11.3 4.7s-8.3-1.9-11.3-4.9z"  horiz-adv-x="1024" />

    
    <glyph glyph-name="lingshi" unicode="&#58889;" d="M738.7 688h-384v32h384v-32zM823 800h-20.5L783 785.5l-19-14.1-19 14.1-9 6.6-9-6.6-19-14.1-19 14.1-9 6.6-9-6.6-19-14.1-19 14.1-9 6.6-9-6.6-19-14.1-19 14.1-9 6.6-9-6.6-19-14.1-19 14.1-9 6.6-9-6.6-19-14.1-19 14.1-9 6.6-9-6.6-19-14.1-19 14.1-9 6.6-9-6.6-19-14.1-19 14.1-9 6.6-9-6.6-19-14.1-19 14.1-9 6.6-9-6.6-19-14.1-19 14.1L221.4 800H201l22.1-88.3 1-3.8V60l-1-3.8L201-32h20.4l19.5 14.5 19 14.1 19-14.1 9-6.6 9 6.6 19 14.1 19-14.1 9-6.6 9 6.6 19 14.1 19-14.1 9-6.6 9 6.6 19 14.1 19-14.1 9-6.6 9 6.6 19 14.1 19-14.1 9-6.6 9 6.6 19 14.1 19-14.1 9-6.6 9 6.6 19 14.1 19-14.1 9-6.6 9 6.6 19 14.1 19-14.1 9-6.6 9 6.6 19 14.1 19-14.1 9-6.6 9 6.6 19 14.1 19-14.1 19.5-14.5H823l-22 88.1-1 3.8v648l1 3.8L823 800m41 32z m0 0l-32-128v-640l32-128h-72l-28 20.7-28-20.7-28 20.7-28-20.7-28 20.7-28-20.7-28 20.7-28-20.7-28 20.7-28-20.7-28 20.7-28-20.7-28 20.7-28-20.7-28 20.7-28-20.7-28 20.7-28-20.7-28 20.7-28-20.7h-72l32 127.9V384 704L160 832h72l28-20.7L288 832l28-20.7L344 832l28-20.7L400 832l28-20.7L456 832l28-20.7L512 832l28-20.7L568 832l28-20.7L624 832l28-20.7L680 832l28-20.7L736 832l28-20.7L792 832h72zM732.2 163.2c-3.2-3.2-7.4-4.8-11.7-4.8s-8.4 1.6-11.7 4.8L591.4 280.7c-30.4-25.2-69.4-40.4-111.9-40.4-15.4 0-30.3 2-44.5 5.7-0.5 0.1-0.9 0.2-1.4 0.4C359 266.6 304 335 304 415.9c0 96.8 78.7 175.6 175.5 175.6S655 512.7 655 415.9c0-42.5-15.2-81.5-40.4-111.9L732 186.5c6.6-6.4 6.6-16.8 0.2-23.3zM479.5 272.3c38.7 0 73.9 15.4 99.7 40.4 0.5 0.6 1 1.3 1.6 1.8 0.6 0.6 1.2 1.1 1.8 1.6 25 25.8 40.4 61 40.4 99.7 0 79.2-64.4 143.6-143.5 143.6S336 495.1 336 415.9c0-13.7 1.9-26.9 5.5-39.4 0.4 20.7 5.2 41.8 14.5 62.6 10.8 24.3 26.9 45.8 46.4 62.4 20.4 17.3 42.7 27.5 64.5 29.4 33.3 2.9 62.6-6.4 84.7-26.9 18.7-17.3 31.2-41.9 35.3-69.2 3.7-24.5-2.4-48.6-17-67.7-13.9-18.2-34.4-30.1-56-32.6-43.2-5-70.4 22.7-77.3 50.6-7.5 30.2 6.8 58.8 34.6 69.7 8.2 3.2 17.5-0.9 20.7-9.1 3.2-8.2-0.9-17.5-9.1-20.7-15.6-6.1-17.9-21.1-15.2-32.2 3.5-14.1 16.8-29.5 42.6-26.5 13.1 1.5 25.6 8.9 34.3 20.3 9.3 12.2 13.1 27.6 10.8 43.5-5.2 34.8-30.7 73.7-85.6 68.9-15-1.3-31.5-9.1-46.6-21.9-15.7-13.3-29.1-31.4-37.9-51-18.5-41.5-14.8-84.4 10.3-117.9 6.8-9.1 27.9-24 47.6-31.1 11.6-3.1 23.8-4.8 36.4-4.8zM320 720h-32v-32h32v32z m353.5-640.1h-384v-32h384v32z m62.5 0h-32v-32h32v32z"  horiz-adv-x="1024" />

    
    <glyph glyph-name="hongbeigongju" unicode="&#58896;" d="M1001.01181 735.458786c15.648162 15.648162 23.484354 37.134105 22.091523 60.485232-1.356497 22.91511-11.542336 44.946075-28.619664 62.023403C976.849208 875.601882 954.321668 886.308519 931.055322 888.161591c-23.847702 1.877295-45.624323-5.728778-61.320931-21.425386-21.30427-21.30427-26.960378-45.055079-32.943499-70.247166-6.952047-29.188909-14.812463-62.096072-50.057161-99.738864l-63.14978 63.14978a46.084563 46.084563 0 0 1-65.087633 0L462.579394 564.031478c-13.964652 49.233574-59.346744 195.589911-120.885683 257.153074-40.077219 40.077219-88.160193 65.959667-135.407468 72.911713-55.71327 8.187428-107.793065-10.137393-150.66806-52.976052s-61.163481-94.942678-52.976052-150.668059c6.952047-47.235163 32.834494-95.34236 72.911713-135.407469C138.812629 491.749566 283.533902 447.651302 332.597914 434.062109L136.789995 238.242078a46.024005 46.024005 0 0 1 0-65.087633l62.641093-62.641093c-38.066697-36.128844-70.840633-44.534281-99.896314-51.970791-24.75607-6.334357-48.143532-12.329589-69.375133-33.56119-15.648162-15.648162-23.496466-37.134105-22.091522-60.485232 1.368609-22.91511 11.530224-44.946075 28.607553-62.023403 17.634461-17.634461 40.162-28.35321 63.379899-30.19417q3.633474-0.266455 7.085275-0.278566c21.049927 0 40.113554 7.581849 54.235657 21.703952 21.30427 21.30427 26.960378 45.055079 32.943498 70.247166 7.012605 29.443252 14.94569 62.665317 50.977642 100.707791l66.541022-66.541023a46.024005 46.024005 0 0 1 65.087633 0l230.483374 230.483374 287.347244-310.516697a58.898615 58.898615 0 0 1 42.390531-19.063627h1.211158a59.346744 59.346744 0 0 1 40.271005 102.948433L668.185582 289.280278l230.483374 230.483374a46.024005 46.024005 0 0 1 0 65.087632l-65.971778 65.98389c37.654903 35.353703 70.12605 43.68647 98.927389 51.062423 24.719735 6.370691 48.143532 12.329589 69.387243 33.561189zM327.983402 807.486354c62.786433-62.786433 110.215381-227.516037 118.838826-259.187819l-24.671289-24.671289a763.574583 763.574583 0 0 1-84.877955 144.30948c-35.123583 46.726477-73.26295 84.950625-113.42495 113.5824C179.531762 813.106128 132.684169 833.017566 84.310517 840.999097 169.224807 910.53168 267.340719 868.141149 327.983402 807.486354z m59.903876-318.146992a747.139168 747.139168 0 0 0-147.422156 85.616761C172.228479 626.212331 89.155149 710.254587 73.761331 822.977066 186.326358 807.583247 270.283833 724.715814 321.503707 656.648733a748.99224 748.99224 0 0 0 85.895327-147.76128zM89.252042 568.754994C28.597247 629.409789-13.793284 727.513589 55.739299 812.427879c7.933085-48.373652 27.856635-95.221245 59.504194-139.537517 28.631776-40.162 66.855924-78.32559 113.582401-113.437062a764.0106 764.0106 0 0 1 144.30948-84.865843l-24.707624-24.707624c-31.393216 8.35699-194.451422 54.138764-259.175708 118.875161z m86.270787-600.371038c-5.801447-24.332165-10.379624-43.601689-27.856635-60.981807-11.627117-11.615006-27.977751-17.234779-46.096675-15.745054-18.615499 1.417055-36.819204 10.137393-51.171427 24.513839-13.734532 13.722421-21.885626 31.296324-23.012003 49.487917-1.065819 17.743465 4.771963 33.912425 16.447527 45.624323C61.298514 28.808631 80.313696 33.653263 104.343071 39.709053c29.927715 7.654519 66.892258 17.137886 108.798326 57.045543l18.494383-18.494383c-39.919769-41.942403-48.882338-79.488302-56.112951-109.876257z m789.977828 19.378529a39.968215 39.968215 0 1 0-56.524746-56.512634L621.180539 242.263123l33.294734 33.306846z m-80.529898 545.699364L363.264436 11.767637a26.645477 26.645477 0 0 0-37.679127 0L150.500304 186.864754a26.645477 26.645477 0 0 0 0 37.679127l521.694211 521.694212a26.645477 26.645477 0 0 0 37.679127 0l175.097117-175.085006a26.645477 26.645477 0 0 0 0-37.691238z m-65.98389 131.071523l-18.554941 18.554941c39.144628 41.61539 48.034528 78.810053 55.216695 109.004223 5.789335 24.332165 10.367513 43.601689 27.783965 60.969695 11.627117 11.627117 27.989862 17.234779 46.096675 15.817724 18.676057-1.477613 36.879762-10.210062 51.244097-24.574396 13.734532-13.734532 21.885626-31.296324 23.012002-49.487918 1.053707-17.743465-4.784074-33.912425-16.459637-45.624323-17.47701-17.47701-36.455857-22.333754-60.473121-28.486437-29.721818-7.593961-66.359349-17.040994-107.865735-56.173509z"  horiz-adv-x="1024" />

    
    <glyph glyph-name="dami" unicode="&#58916;" d="M786.9 74.2H237.1l-70.7 304.6h691.2l-70.7-304.6z m-532.3 22h514.8l60.5 260.6H194.1l60.5-260.6zM734.2-37H289.9c-15.8 0-29.4 10.8-33 26.2L147.3 460.8c-2.4 10.1 0 20.6 6.5 28.7 6.5 8.1 16.1 12.8 26.5 12.8h663.4c10.4 0 20-4.7 26.5-12.8 6.5-8.1 8.8-18.6 6.5-28.7L767.1-10.8c-3.5-15.4-17.1-26.2-32.9-26.2zM180.3 480.3c-3.6 0-7-1.6-9.3-4.5-2.3-2.8-3.1-6.5-2.3-10.1l109.5-471.6c1.3-5.4 6-9.2 11.5-9.2H734c5.5 0 10.3 3.8 11.5 9.2L855 465.7c0.8 3.5 0 7.2-2.3 10.1-2.3 2.8-5.6 4.5-9.3 4.5H180.3zM844.7 480.3c-2.8 0-5.6 1.1-7.8 3.2L555.5 765c-24 24-63 24-86.9 0l-281-280.9c-4.3-4.3-11.3-4.3-15.6 0s-4.3 11.3 0 15.6l281 280.9C468.7 796.3 489.7 805 512 805s43.3-8.7 59-24.4l281.5-281.5c4.3-4.3 4.3-11.3 0-15.6-2.1-2.1-5-3.2-7.8-3.2zM747.1 222c-6.1 0-11 4.9-11 11 0 4.6 2.9 8.6 6.9 10.2 4.2 7.4 11.1 39.7 11.1 93.8 0 6.1 4.9 11 11 11s11-4.9 11-11c0-28.4-1.9-55.2-5.4-75.4-3.4-19.6-8.8-39.6-23.6-39.6z"  horiz-adv-x="1024" />

    
    <glyph glyph-name="yinpin" unicode="&#58907;" d="M509.074286 218.209524h39.009524v-224.304762h-39.009524zM715.824762-38.765714H341.820952c-10.727619 0-19.504762 8.777143-19.504762 19.504762s8.777143 19.504762 19.504762 19.504762h374.00381c10.727619 0 19.504762-8.777143 19.504762-19.504762s-8.777143-19.504762-19.504762-19.504762zM365.714286 720.457143c-1.950476 0-3.900952 0.487619-5.851429 0.975238l-180.419047 58.514286c-10.24 3.413333-16.091429 14.140952-12.678096 24.380952 3.413333 10.24 14.140952 16.091429 24.380953 12.678095l180.419047-58.514285c10.24-3.413333 16.091429-14.140952 12.678096-24.380953-2.438095-8.289524-10.24-13.653333-18.529524-13.653333zM528.579048 170.910476c-5.851429 0-11.215238 2.438095-15.116191 7.314286L216.502857 544.914286c-4.87619 5.851429-5.851429 13.653333-2.438095 20.48 3.413333 6.826667 10.24 11.215238 17.554286 11.215238h594.407619c7.314286 0 14.140952-4.388571 17.554285-11.215238 3.413333-6.826667 2.438095-14.628571-2.438095-20.48l-296.96-366.689524c-3.900952-4.388571-9.752381-7.314286-15.603809-7.314286zM272.579048 537.6l256-315.977143L785.066667 537.6H272.579048zM424.228571 538.575238c-8.289524 0-16.091429 5.36381-18.529523 13.653333L350.110476 730.697143c-3.413333 10.24 2.438095 21.455238 12.678095 24.380952 10.24 3.413333 21.455238-2.438095 24.380953-12.678095l55.100952-178.468571c3.413333-10.24-2.438095-21.455238-12.678095-24.380953-1.462857-0.487619-3.413333-0.975238-5.36381-0.975238zM730.453333 540.038095c-9.264762 0-17.554286 6.339048-19.017143 16.091429-5.36381 28.769524-30.72 49.737143-59.977142 49.737143s-54.613333-20.967619-59.977143-49.737143c-1.950476-10.727619-12.190476-17.554286-22.918095-15.60381-10.727619 1.950476-17.554286 12.190476-15.60381 22.918096 8.777143 47.299048 50.224762 81.432381 98.011429 81.43238s89.234286-34.133333 98.011428-81.43238c1.950476-10.727619-4.87619-20.967619-15.603809-22.918096-0.487619-0.487619-1.462857-0.487619-2.925715-0.487619z"  horiz-adv-x="1024" />

    
    <glyph glyph-name="cheng-danse" unicode="&#58891;" d="M213.76 99.84h596.48v-25.6H213.76zM504.32 284.16h76.8v-25.6h-76.8zM499.2 631.04h25.6v-76.8h-25.6zM734.72-1.28H289.28c-48.64 0-88.32 39.68-88.32 88.32V248.32c0 171.52 139.52 311.04 311.04 311.04s311.04-139.52 311.04-311.04v-161.28c0-48.64-39.68-88.32-88.32-88.32zM512 533.76c-157.44 0-285.44-128-285.44-285.44v-161.28c0-34.56 28.16-62.72 62.72-62.72h445.44c34.56 0 62.72 28.16 62.72 62.72V248.32c0 157.44-128 285.44-285.44 285.44zM764.16 606.72H259.84c-83.2 0-151.04 67.84-151.04 151.04v12.8h805.12v-12.8c1.28-84.48-66.56-151.04-149.76-151.04zM135.68 743.68c6.4-62.72 60.16-112.64 124.16-112.64h504.32c64 0 117.76 48.64 124.16 112.64H135.68zM512 151.04c-70.4 0-128 57.6-128 128s57.6 128 128 128 128-57.6 128-128-57.6-128-128-128z m0 229.12c-56.32 0-102.4-46.08-102.4-102.4s46.08-102.4 102.4-102.4 102.4 46.08 102.4 102.4-46.08 102.4-102.4 102.4z"  horiz-adv-x="1024" />

    
    <glyph glyph-name="dingdan" unicode="&#58884;" d="M834 704h-66v2c0 51.9-42.1 94-94 94-1.1 0-2 0.9-2 2 0 51.9-42.1 94-94 94H446c-51.9 0-94-42.1-94-94 0-1.1-0.9-2-2-2-51.9 0-94-42.1-94-94v-2h-66c-51.9 0-94-42.1-94-94v-644c0-51.9 42.1-94 94-94h644c51.9 0 94 42.1 94 94V610c0 51.9-42.1 94-94 94z m-518 0v2c0 18.8 15.2 34 34 34h32c16.6 0 30 13.4 30 30V802c0 18.8 15.2 34 34 34h132c18.8 0 34-15.2 34-34v-32c0-16.6 13.4-30 30-30h32c18.8 0 34-15.2 34-34v-4c0-18.8-15.2-34-34-34H350c-18.8 0-34 15.2-34 34v2z m552-738c0-18.8-15.2-34-34-34H190c-18.8 0-34 15.2-34 34V610c0 18.8 15.2 34 34 34h79.1c4.3 0 8.3-1.8 11.1-5 9.7-10.8 21.9-19.3 35.7-24.7 10.5-4.1 22-6.4 34-6.4h324c12 0 23.5 2.3 34 6.4 13.8 5.4 26 13.9 35.7 24.7 2.9 3.2 6.9 5 11.1 5H834c18.8 0 34-15.2 34-34v-644zM738 290H286c-16.5 0-30-13.5-30-30s13.5-30 30-30h452c16.5 0 30 13.5 30 30s-13.5 30-30 30zM738 102H286c-16.5 0-30-13.5-30-30s13.5-30 30-30h452c16.5 0 30 13.5 30 30s-13.5 30-30 30zM738 478H286c-16.5 0-30-13.5-30-30s13.5-30 30-30h452c16.5 0 30 13.5 30 30s-13.5 30-30 30z"  horiz-adv-x="1024" />

    
    <glyph glyph-name="QQ" unicode="&#58903;" d="M871.2 311.8c-14.2 33.9-33.1 64-52.6 86.8 7.6 11.3 12.3 27.2 12.3 44.9 0 23.8-8.6 44.5-21.2 55 2.6 15.3 4 31 4 47 0 157.9-131.6 285.9-294 285.9-162.3 0-293.9-128-293.9-285.9 0-9.2 0.5-18.2 1.3-27.2-13.2-10.1-22.3-31.3-22.3-55.8 0-20.9 6.7-39.4 16.8-50.7-21.5-20.9-42.9-49.3-60-82.7-41.7-81.4-35.5-163.7-9.8-177.1 13.2-6.9 47.5 14.7 81.2 54.8 5.5-47.1 28.2-90.2 63.1-124.8-57.7-16.7-95.9-49.7-90.8-83.2 6.4-42.3 79.4-69.5 163.2-60.6 61.3 6.5 111.4 30.5 131.3 59.5 5.1-0.2 10.3-0.4 15.5-0.4 9 0 17.8 0.4 26.6 1 21.3-27.6 68.4-50.6 125.3-57.7 81.3-10.1 151.6 15.9 157 58.1 4.3 33.3-32.9 66.7-88.5 84.4 32.7 32.9 54.5 73.3 61.1 117.5 29.9-40.1 60.6-65.8 76.6-62.3 18.9 4.1 32.4 90.6-2.2 173.5z"  horiz-adv-x="1024" />

    
    <glyph glyph-name="icon_alipay_line" unicode="&#60304;" d="M322.749752 150.762935c74.987878 0 149.936871 47.355541 208.79642 123.163087-83.736123 40.35715-154.673755 69.230758-231.311203 61.753459-20.720927-2.034333-59.624982-11.099802-80.896449-29.652343-63.759139-54.903447-25.614377-155.264203 103.411232-155.264203zM160.016437 831.978894h703.966103c53.016471 0 95.995331-42.97886 95.995331-95.995331v-703.966103c0-53.016471-42.97886-95.995331-95.995331-95.995331H160.016437c-53.016471 0-95.995331 42.97886-95.995331 95.995331V735.983563c0 53.016471 42.97886 95.995331 95.995331 95.995331z m735.964888-600.388073V735.983563c0 17.672498-14.326287 31.998785-31.998785 31.998785H160.016437c-17.672498 0-31.998785-14.326287-31.998785-31.998785v-703.966103c0-17.672498 14.326287-31.998785 31.998785-31.998785h703.966103c17.672498 0 31.998785 14.326287 31.998785 31.998785V111.397369c-64.164369 26.708292-209.505571 87.783299-292.64613 127.259382-73.051783-88.768743-167.301354-142.641721-265.137613-142.641721-165.469636 0-221.660402 142.991692-143.308917 237.131768 17.076934 20.521383 46.147016 40.116673 91.247191 51.093679 70.545706 17.113773 182.841282-10.679223 288.069904-44.970214 18.914792 34.440393 34.853809 72.354911 46.715975 112.724341H296.610418v32.458249h167.223583v58.144258H261.292028v32.457226h202.541973v82.95534s0 13.977339 14.329356 13.97734h81.733513v-96.93268h200.257953v-32.457226H559.89687v-58.144258h163.467025c-15.637142-63.282279-39.414685-121.517611-69.210291-172.657338 49.595558-17.72264 94.132914-34.505885 127.311571-45.469588 56.590879-18.723434 92.449575-29.05064 114.51615-34.735106z"  horiz-adv-x="1024" />

    
    <glyph glyph-name="icon_send" unicode="&#60317;" d="M218.786958 383.765663L69.050656 743.133404c-22.806425 54.735625 34.657334 108.373243 87.694271 81.855286l767.963673-383.981325c47.168276-23.584138 47.168276-90.89722 0-114.481358L156.744927-57.456341c-53.036937-26.517957-110.500697 27.118638-87.694271 81.854263L218.786958 383.765663z m613.771895-31.764448H274.881534L128.124076-0.215662l704.434777 352.216877z m-0.936325 63.99757L128.124076 767.746988l146.562007-351.749226h556.936445z"  horiz-adv-x="1024" />

    
    <glyph glyph-name="dingwei" unicode="&#58922;" d="M620.8 556.8c0 51.2-38.4 89.6-89.6 89.6s-89.6-38.4-89.6-89.6 38.4-89.6 89.6-89.6 89.6 38.4 89.6 89.6zM928 76.8c-12.8 12.8-38.4 19.2-70.4 25.6-19.2 6.4-57.6 6.4-83.2 6.4h-6.4c-12.8 0-19.2-12.8-19.2-25.6s12.8-25.6 25.6-25.6h25.6c51.2-6.4 76.8-12.8 83.2-25.6 6.4-6.4 12.8-19.2 12.8-25.6 0-12.8-25.6-32-89.6-51.2-70.4-19.2-166.4-25.6-275.2-25.6-115.2 0-204.8 6.4-275.2 25.6-76.8 19.2-96 44.8-96 51.2 0 12.8 6.4 19.2 12.8 25.6 12.8 6.4 32 12.8 70.4 19.2h32c12.8 0 25.6 12.8 25.6 25.6s-6.4 19.2-19.2 25.6h-6.4c-64 0-102.4-12.8-134.4-25.6-25.6-19.2-44.8-44.8-44.8-76.8 0-25.6 12.8-51.2 44.8-70.4 19.2-12.8 51.2-25.6 89.6-32 70.4-19.2 172.8-25.6 288-25.6 121.6 0 204.8 6.4 275.2 25.6 44.8 6.4 83.2 25.6 102.4 38.4 25.6 19.2 44.8 38.4 51.2 64 12.8 38.4 6.4 51.2-19.2 76.8zM486.4 44.8c12.8-12.8 25.6-19.2 44.8-19.2 12.8 0 32 6.4 44.8 19.2 57.6 76.8 102.4 147.2 166.4 249.6 70.4 115.2 115.2 211.2 115.2 275.2 0 83.2-32 166.4-89.6 224-64 64-140.8 96-224 96h-12.8c-83.2 0-160-32-224-96s-96-147.2-89.6-224c-6.4-64 32-166.4 102.4-275.2 64-108.8 115.2-172.8 166.4-249.6z m-128 704c51.2 51.2 115.2 76.8 172.8 76.8 64 0 128-25.6 172.8-76.8 51.2-51.2 76.8-102.4 76.8-172.8 0-32-19.2-89.6-64-172.8-44.8-76.8-96-160-172.8-268.8 0-6.4-6.4-6.4-12.8-6.4s-12.8 0-12.8 6.4c-147.2 204.8-236.8 371.2-236.8 441.6 0 70.4 25.6 121.6 76.8 172.8z"  horiz-adv-x="1024" />

    
    <glyph glyph-name="chufangdianqi" unicode="&#58947;" d="M149.333333 704h725.333334a64 64 0 0 0 64-64v-512a64 64 0 0 0-64-64H149.333333a64 64 0 0 0-64 64V640a64 64 0 0 0 64 64z m0-64v-512h725.333334V640H149.333333z m128-85.333333h298.666667a64 64 0 0 0 64-64v-213.333334a64 64 0 0 0-64-64H277.333333a64 64 0 0 0-64 64V490.666667a64 64 0 0 0 64 64z m0-64v-213.333334h298.666667V490.666667H277.333333z m480-42.666667a42.666667 42.666667 0 1 0 0 85.333333 42.666667 42.666667 0 0 0 0-85.333333z m-42.666666-149.333333h85.333333a32 32 0 0 0 0-64h-85.333333a32 32 0 0 0 0 64z m0 106.666666h85.333333a32 32 0 0 0 0-64h-85.333333a32 32 0 0 0 0 64z"  horiz-adv-x="1024" />

    
    <glyph glyph-name="edit" unicode="&#58908;" d="M212.782 5.576000000000022a26.081 26.081 0 0 0-26.05 26.05 26.081 26.081 0 0 0 26.05 26.061h624.574a26.086 26.086 0 0 0 26.05-26.06 26.081 26.081 0 0 0-26.05-26.051H212.782z m486.682 500.193a25.748 25.748 0 0 0-18.37 7.629L571.97 622.52a26.081 26.081 0 0 0 0 36.844c4.92 4.915 11.458 7.629 18.421 7.629s13.502-2.709 18.422-7.63l109.123-109.117a25.907 25.907 0 0 0 7.618-18.432 25.892 25.892 0 0 0-7.66-18.421 25.861 25.861 0 0 0-18.39-7.624h-0.041zM217.62 135.813a29.015 29.015 0 0 0-27.683 37.755l55.67 176.63a29.058 29.058 0 0 0 7.157 11.801l408.653 408.653a29.03 29.03 0 0 0 41.052 0l120.955-120.96a29.03 29.03 0 0 0 0-41.052L414.776 199.99199999999996a29.015 29.015 0 0 0-11.796-7.157L226.35 137.15999999999997a28.98 28.98 0 0 0-8.73-1.347z m81.219 190.162L262.062 209.28999999999996l116.685 36.782 383.104 383.1-79.903 79.902L298.84 325.975z"  horiz-adv-x="1024" />

    
    <glyph glyph-name="home" unicode="&#58933;" d="M426.666667-42.666667a42.666667 42.666667 0 0 0-42.666667-42.666666H149.205333A106.538667 106.538667 0 0 0 42.666667 21.482667v362.666666c0 47.744 27.328 106.816 63.786666 137.792L484.352 843.178667a42.666667 42.666667 0 0 0 55.253333 0L917.546667 521.941333c36.48-31.061333 63.786667-89.984 63.786666-137.813333v-362.666667A106.624 106.624 0 0 0 874.645333-85.333333H640a42.666667 42.666667 0 0 0-42.666667 42.666666V213.333333h-170.666666v-256z m447.978666 42.666667A21.290667 21.290667 0 0 1 896 21.482667v362.666666c0 22.784-16.277333 57.941333-33.706667 72.768L512 754.666667 161.706667 456.917333C144.341333 442.154667 128 406.848 128 384.149333v-362.666666A21.205333 21.205333 0 0 1 149.205333 0H341.333333V256a42.666667 42.666667 0 0 0 42.666667 42.666667h256a42.666667 42.666667 0 0 0 42.666667-42.666667v-256h191.978666z"  horiz-adv-x="1024" />

    
    <glyph glyph-name="aixin" unicode="&#59563;" d="M667.786667 778.666667C832.864 778.666667 938.666667 646.293333 938.666667 468.138667c0-138.250667-125.098667-290.506667-371.573334-461.589334a96.768 96.768 0 0 0-110.186666 0C210.432 177.632 85.333333 329.888 85.333333 468.138667 85.333333 646.293333 191.136 778.666667 356.213333 778.666667c59.616 0 100.053333-20.832 155.786667-68.096C567.744 757.824 608.170667 778.666667 667.786667 778.666667z m0-63.146667c-41.44 0-70.261333-15.189333-116.96-55.04-2.165333-1.845333-14.4-12.373333-17.941334-15.381333a32.32 32.32 0 0 0-41.770666 0c-3.541333 3.018667-15.776 13.536-17.941334 15.381333-46.698667 39.850667-75.52 55.04-116.96 55.04C230.186667 715.52 149.333333 614.741333 149.333333 469.301333 149.333333 358.4 262.858667 220.757333 493.632 61.173333a32.352 32.352 0 0 1 36.736 0C761.141333 220.746667 874.666667 358.4 874.666667 469.301333c0 145.44-80.853333 246.218667-206.88 246.218667z"  horiz-adv-x="1024" />

    
    <glyph glyph-name="dianzan" unicode="&#59565;" d="M621.674667 487.978667c16.618667 74.24 28.224 127.936 34.837333 161.194666C673.152 732.906667 629.941333 810.666667 544.298667 810.666667c-77.226667 0-116.010667-38.378667-138.88-115.093334l-0.586667-2.24c-13.728-62.058667-34.72-110.165333-62.506667-144.586666a158.261333 158.261333 0 0 0-119.733333-58.965334l-21.909333-0.469333C148.437333 488.192 106.666667 445.184 106.666667 392.501333V74.666667c0-64.8 52.106667-117.333333 116.394666-117.333334h412.522667c84.736 0 160.373333 53.568 189.12 133.92l85.696 239.584c21.802667 60.96-9.536 128.202667-70.005333 150.186667a115.552 115.552 0 0 1-39.488 6.954667H621.674667zM544.256 746.666667c39.253333 0 59.498667-36.48 49.888-84.928-7.573333-38.144-21.984-104.426667-43.221333-198.666667-4.512-20.021333 10.56-39.093333 30.912-39.093333h218.666666c6.101333 0 12.16-1.066667 17.909334-3.168 27.445333-9.984 41.674667-40.554667 31.776-68.266667l-85.568-239.573333C744.981333 57.973333 693.301333 21.333333 635.402667 21.333333H223.498667C194.314667 21.333333 170.666667 45.216 170.666667 74.666667V392.501333c0 17.866667 14.144 32.448 31.829333 32.821334l21.866667 0.469333a221.12 221.12 0 0 1 167.381333 82.56c34.346667 42.602667 59.146667 99.306667 74.869333 169.877333C482.101333 729.664 499.552 746.666667 544.266667 746.666667z"  horiz-adv-x="1024" />

    
    <glyph glyph-name="fenxiang" unicode="&#59568;" d="M853.333333 362.666667a32 32 0 0 0 64 0v-266.666667c0-64.8-52.533333-117.333333-117.333333-117.333333H224c-64.8 0-117.333333 52.533333-117.333333 117.333333V640c0 64.8 52.533333 117.333333 117.333333 117.333333h277.333333a32 32 0 0 0 0-64H224a53.333333 53.333333 0 0 1-53.333333-53.333333v-544a53.333333 53.333333 0 0 1 53.333333-53.333333h576a53.333333 53.333333 0 0 1 53.333333 53.333333V362.666667z m-42.058666 277.333333l-89.792 95.402667a32 32 0 0 0 46.613333 43.861333l140.544-149.333333C927.861333 609.514667 913.376 576 885.333333 576H724.704C643.029333 576 576 504.789333 576 416v-192a32 32 0 1 0-64 0V416c0 123.296 94.784 224 212.704 224h86.570667z"  horiz-adv-x="1024" />

    
    <glyph glyph-name="shanchu" unicode="&#59574;" d="M202.666667 640h-42.666667a32 32 0 0 0 0 64h704a32 32 0 0 0 0-64H266.666667v-565.333333a53.333333 53.333333 0 0 1 53.333333-53.333334h384a53.333333 53.333333 0 0 1 53.333333 53.333334V544a32 32 0 0 0 64 0v-469.333333c0-64.8-52.533333-117.333333-117.333333-117.333334H320c-64.8 0-117.333333 52.533333-117.333333 117.333334V640z m224 106.666667a32 32 0 0 0 0 64h170.666666a32 32 0 0 0 0-64H426.666667z m-32-288a32 32 0 0 0 64 0v-256a32 32 0 0 0-64 0V458.666667z m170.666666 0a32 32 0 0 0 64 0v-256a32 32 0 0 0-64 0V458.666667z"  horiz-adv-x="1024" />

    
    <glyph glyph-name="shoucang" unicode="&#59577;" d="M335.008-20.629333c-35.914667-22.314667-82.88-10.773333-104.693333 25.557333a77.333333 77.333333 0 0 0-8.96 57.429333l46.485333 198.24a13.141333 13.141333 0 0 1-4.021333 12.864l-152.16 132.586667c-31.605333 27.52-35.253333 75.648-8.234667 107.733333a75.68 75.68 0 0 0 51.733333 26.752L354.848 556.8c4.352 0.362667 8.245333 3.232 10.026667 7.594667l76.938666 188.170666c16.032 39.2 60.618667 57.92 99.52 41.461334a76.309333 76.309333 0 0 0 40.832-41.461334l76.938667-188.16c1.781333-4.373333 5.674667-7.253333 10.026667-7.605333l199.712-16.277333c41.877333-3.413333 72.885333-40.458667 69.568-82.517334a76.938667 76.938667 0 0 0-26.08-51.978666l-152.16-132.586667c-3.541333-3.082667-5.141333-8.074667-4.021334-12.853333l46.485334-198.24c9.621333-41.013333-15.36-82.336-56.138667-92.224a75.285333 75.285333 0 0 0-57.525333 9.237333l-170.976 106.24a11.296 11.296 0 0 1-12.010667 0l-170.986667-106.24zM551.786667 139.968l170.976-106.24c2.624-1.621333 5.717333-2.122667 8.650666-1.408 6.410667 1.557333 10.56 8.426667 8.928 15.424l-46.485333 198.24a77.141333 77.141333 0 0 0 24.277333 75.733333L870.293333 454.293333c2.485333 2.165333 4.053333 5.312 4.330667 8.746667 0.565333 7.136-4.490667 13.173333-10.976 13.696l-199.712 16.288a75.989333 75.989333 0 0 0-64.064 47.168l-76.938667 188.16a12.309333 12.309333 0 0 1-6.538666 6.741333c-5.898667 2.496-12.725333-0.373333-15.328-6.741333l-76.949334-188.16a75.989333 75.989333 0 0 0-64.064-47.168l-199.701333-16.288a11.68 11.68 0 0 1-7.978667-4.181333 13.226667 13.226667 0 0 1 1.333334-18.261334l152.16-132.586666a77.141333 77.141333 0 0 0 24.277333-75.733334l-46.485333-198.229333a13.333333 13.333333 0 0 1 1.514666-9.877333c3.488-5.792 10.581333-7.530667 16.064-4.128l170.986667 106.229333a75.296 75.296 0 0 0 79.562667 0z"  horiz-adv-x="1024" />

    
    <glyph glyph-name="bussiness-man" unicode="&#59119;" d="M644.8 314.432l160.64-187.456A64 64 0 0 0 756.842667 21.333333H267.157333a64 64 0 0 0-48.597333 105.642667l160.661333 187.434667c18.922667-11.52 39.466667-20.629333 61.205334-26.944L267.157333 85.333333H480v128h64v-128h212.842667l-173.269334 202.133334a254.613333 254.613333 0 0 1 61.226667 26.965333zM512 746.666667c117.824 0 213.333333-95.509333 213.333333-213.333334s-95.509333-213.333333-213.333333-213.333333-213.333333 95.509333-213.333333 213.333333S394.176 746.666667 512 746.666667z m0-64a149.333333 149.333333 0 1 1 0-298.666667 149.333333 149.333333 0 0 1 0 298.666667z"  horiz-adv-x="1024" />

    
    <glyph glyph-name="add-account" unicode="&#59201;" d="M175.893333 126.976l146.602667 171.050667c18.666667-11.669333 38.826667-21.184 60.117333-28.202667L224.490667 85.333333H554.666667v-64H224.490667a64 64 0 0 0-48.597334 105.642667l146.602667 171.050667zM746.666667 256v-85.333333h85.333333v-64h-85.333333v-85.333334h-64v85.333334h-85.333334v64h85.333334v85.333333h64zM469.333333 746.666667c117.824 0 213.333333-95.509333 213.333334-213.333334s-95.509333-213.333333-213.333334-213.333333-213.333333 95.509333-213.333333 213.333333S351.509333 746.666667 469.333333 746.666667z m0-64a149.333333 149.333333 0 1 1 0-298.666667 149.333333 149.333333 0 0 1 0 298.666667z"  horiz-adv-x="1024" />

    
    <glyph glyph-name="arrow-right" unicode="&#59203;" d="M593.450667 383.872L360.064 617.386667l45.290667 45.226666 278.613333-278.762666L405.333333 105.386667l-45.226666 45.269333z"  horiz-adv-x="1024" />

    
    <glyph glyph-name="arrow-lift" unicode="&#59204;" d="M641.28 617.386667l-45.226667 45.226666-278.634666-278.762666 278.613333-278.485334 45.248 45.269334-233.365333 233.237333z"  horiz-adv-x="1024" />

    
    <glyph glyph-name="all" unicode="&#59205;" d="M490.666667 362.666667v-256a64 64 0 0 0-64-64h-192a64 64 0 0 0-64 64v192a64 64 0 0 0 64 64h256z m298.666666 0a64 64 0 0 0 64-64v-192a64 64 0 0 0-64-64h-192a64 64 0 0 0-64 64V362.666667h256z m-362.666666-64h-192v-192h192v192z m362.666666 0h-192v-192h192v192zM426.666667 725.333333a64 64 0 0 0 64-64v-256H234.666667a64 64 0 0 0-64 64v192a64 64 0 0 0 64 64h192z m266.666666 0a160 160 0 1 0 0-320 160 160 0 0 0 0 320zM426.666667 661.333333h-192v-192h192v192z m266.666666 0a96 96 0 1 1 0-192 96 96 0 0 1 0 192z"  horiz-adv-x="1024" />

    
    <glyph glyph-name="ashbin" unicode="&#59206;" d="M341.013333 501.333333l27.754667-393.450666h271.829333l27.733334 393.450666h64.106666L704.426667 103.381333a64 64 0 0 0-63.829334-59.498666H368.768a64 64 0 0 0-63.829333 59.52L276.885333 501.333333h64.128z m139.306667-19.818666v-298.666667h-64v298.666667h64z m117.013333 0v-298.666667h-64v298.666667h64zM181.333333 608h640v-64h-640v64z m453.482667 106.666667v-64h-256v64h256z"  horiz-adv-x="1024" />

    
    <glyph glyph-name="certified-supplier" unicode="&#59207;" d="M830.869333 236.138667l44.928-45.610667-174.08-171.456-105.536 104.106667 44.970667 45.568 60.586667-59.818667 129.130666 127.210667z m-465.706666 61.866666c18.666667-11.669333 38.826667-21.184 60.138666-28.181333L267.157333 85.333333h266.730667l68.352-64H267.157333a64 64 0 0 0-48.597333 105.642667l146.602667 171.050667zM512 746.666667c117.824 0 213.333333-95.509333 213.333333-213.333334s-95.509333-213.333333-213.333333-213.333333-213.333333 95.509333-213.333333 213.333333S394.176 746.666667 512 746.666667z m0-64a149.333333 149.333333 0 1 1 0-298.666667 149.333333 149.333333 0 0 1 0 298.666667z"  horiz-adv-x="1024" />

    
    <glyph glyph-name="history" unicode="&#59218;" d="M512 736c194.410667 0 352-157.589333 352-352S706.410667 32 512 32l-2.538667 0.106667c-91.477333 7.274667-165.738667 38.08-221.44 91.989333L288 53.333333h-64V256H405.333333v-64h-92.842666c46.250667-56.917333 112.490667-88.725333 200.768-96l6.677333 0.106667C675.328 100.309333 800 227.605333 800 384c0 159.061333-128.938667 288-288 288S224 543.061333 224 384h-64c0 194.410667 157.589333 352 352 352zM469.333333 576h64v-160h160v-64H469.333333V576z"  horiz-adv-x="1024" />

    
    <glyph glyph-name="good" unicode="&#59219;" d="M581.674667 725.333333c6.72 0 18.538667-1.429333 27.584-4.352 44.544-14.442667 70.186667-61.76 59.797333-109.12l-1.066667-4.437333-39.701333-148.906667h157.269333c19.093333 0 37.973333-7.082667 50.773334-21.248 14.293333-15.829333 19.861333-36.778667 15.616-57.109333l-1.066667-4.352-82.922667-295.253333a51.882667 51.882667 0 0 0-46.08-37.76l-3.84-0.128H298.666667V443.498667c84.949333 18.389333 209.194667 244.373333 209.194666 244.373333C525.525333 711.829333 546.944 725.333333 581.674667 725.333333zM234.666667 448v-405.333333H170.666667V448h64z m347.008 213.333333c-9.6 0-13.546667-1.109333-18.453334-6.613333l-1.706666-2.005333-8.064-14.08-8.64-14.613334a1342.848 1342.848 0 0 0-63.189334-96.426666c-24.512-33.92-48.597333-63.146667-72.234666-86.464-15.722667-15.509333-31.146667-28.437333-46.72-38.464V106.666667h346.154666L789.333333 393.514667c0 0.277333-0.128 0.448-0.490666 0.853333 0.298667-0.341333-0.853333 0.149333-3.285334 0.149333H544.981333l61.162667 229.44c4.394667 16.426667-3.626667 31.936-16.597333 36.138667a46.016 46.016 0 0 1-7.893334 1.237333z"  horiz-adv-x="1024" />

    
    <glyph glyph-name="password" unicode="&#59227;" d="M512.704 789.333333a181.333333 181.333333 0 0 0 181.333333-181.333333l-0.021333-53.333333H789.333333a64 64 0 0 0 64-64v-384a64 64 0 0 0-64-64H234.666667a64 64 0 0 0-64 64V490.666667a64 64 0 0 0 64 64h96.682666v53.333333a181.333333 181.333333 0 0 0 181.333334 181.333333zM789.333333 490.666667H234.666667v-384h554.666666V490.666667z m-239.210666-106.666667v-170.666667h-64v170.666667h64zM512.704 725.333333a117.333333 117.333333 0 0 1-117.333333-117.333333V554.666667h234.666666v53.333333a117.333333 117.333333 0 0 1-117.333333 117.333333z"  horiz-adv-x="1024" />

    
    <glyph glyph-name="switch" unicode="&#59240;" d="M405.333333 708.330667v-68.266667c-100.224-41.770667-170.666667-140.693333-170.666666-256.064 0-153.173333 124.16-277.333333 277.333333-277.333333s277.333333 124.16 277.333333 277.333333c0 115.370667-70.442667 214.272-170.666666 256.064l0.021333 68.266667C754.944 663.530667 853.333333 535.253333 853.333333 384c0-188.522667-152.810667-341.333333-341.333333-341.333333S170.666667 195.477333 170.666667 384c0 151.253333 98.389333 279.552 234.666666 324.330667zM544 757.333333v-384h-64v384h64z"  horiz-adv-x="1024" />

    
    <glyph glyph-name="ellipsis-v" unicode="&#59341;" d="M512 528c79.6 0 144-64.4 144-144s-64.4-144-144-144-144 64.4-144 144 64.4 144 144 144zM368 736c0-79.6 64.4-144 144-144s144 64.4 144 144S591.6 880 512 880 368 815.6 368 736z m0-704c0-79.6 64.4-144 144-144s144 64.4 144 144-64.4 144-144 144-144-64.4-144-144z"  horiz-adv-x="1024" />

    
    <glyph glyph-name="shuihu" unicode="&#59186;" d="M238.89483 486.275348H1194.474149v-68.39866H238.89483zM1103.053502-127.977979H330.982781a173.165386 173.165386 0 0 0-162.488522 116.778199 588.895775 588.895775 0 0 0-24.690248 283.270546A577.885259 577.885259 0 0 0 647.284874 755.532509a580.220823 580.220823 0 0 0 649.620439-576.216999 573.214131 573.214131 0 0 0-36.034416-201.859458 166.825999 166.825999 0 0 0-157.817395-105.434031zM717.351794 691.137674a496.474172 496.474172 0 0 1-62.392924-3.670172A511.822163 511.822163 0 0 1 233.556398 11.488556a104.766727 104.766727 0 0 1 98.093687-71.067876h771.403417a100.095599 100.095599 0 0 1 93.756211 61.058316 500.477996 500.477996 0 0 1 33.3652 177.836514A512.489467 512.489467 0 0 1 1057.009527 562.348003 504.48182 504.48182 0 0 1 717.351794 691.137674zM887.514312 725.50383h-68.398659a102.431163 102.431163 0 0 1-204.862326 0h-66.7304a170.829822 170.829822 0 0 0 341.325993 0zM1291.233229 228.696006L1234.512389 266.398682l121.115675 181.506686-31.363288 31.029636-114.442635-57.054492-30.362331 61.058316 136.463666 66.730399a33.3652 33.3652 0 0 0 39.370936-6.339388l68.398659-68.398659a33.3652 33.3652 0 0 0 4.003824-43.041108zM68.398659-59.57932H0V657.10517a33.3652 33.3652 0 0 0 33.3652 33.3652 170.829822 170.829822 0 0 0 170.829822-170.496171v-375.024844h-66.730399V520.641503a102.431163 102.431163 0 0 1-66.7304 96.425427z"  horiz-adv-x="1433" />

    
    <glyph glyph-name="add-select" unicode="&#59312;" d="M544 682.666667v-266.666667H810.666667v-64H544V85.33333300000004h-64V352H213.333333v64h266.666667V682.666667z"  horiz-adv-x="1024" />

    
    <glyph glyph-name="comments" unicode="&#59314;" d="M810.667 682.667a64 64 0 0 0 64-64V192a64 64 0 0 0-64-64H478.336l-146.645-96.107a21.333 21.333 0 0 0-33.024 17.856V128h-85.334a64 64 0 0 0-64 64V618.667a64 64 0 0 0 64 64h597.334z m0-64H213.333V192h149.334v-63.296L459.243 192h351.424V618.667z m-271.36-213.334v-64h-176.64v64h176.64z m122.026 128v-64H362.667v64h298.666z"  horiz-adv-x="1024" />

    
    <glyph glyph-name="cart-Empty" unicode="&#59315;" d="M330.667 128a53.333 53.333 0 1 0 0-106.667 53.333 53.333 0 0 0 0 106.667z m384 0a53.333 53.333 0 1 0 0-106.667 53.333 53.333 0 0 0 0 106.667zM94.763 736h54.741a96 96 0 0 0 92.907-71.787l1.024-4.394 13.205-62.486h0.213L299.733 392l32.491-157.333h402.219l61.653 298.666H313.813l-13.376 64h495.68a64 64 0 0 0 62.678-76.949L797.14 221.717a64 64 0 0 0-62.698-51.05H332.224a64 64 0 0 0-62.677 51.05L208.96 515.136l-0.405-0.085-27.734 131.562a32 32 0 0 1-28.309 25.238l-2.987 0.149H94.741v64h54.742z"  horiz-adv-x="1024" />

    
    <glyph glyph-name="favorites" unicode="&#59316;" d="M484.267 623.979l6.634-6.72c5.974-5.974 13.014-12.843 21.099-20.63l9.195 8.918c7.253 7.04 13.44 13.184 18.56 18.432a193.28 193.28 0 0 0 277.44 0c75.904-77.526 76.629-202.795 2.133-281.195L512 42.667 204.672 342.763c-74.475 78.421-73.77 203.69 2.133 281.216a193.28 193.28 0 0 0 277.44 0z m293.162-232.15c46.272 53.76 44.182 136.15-5.973 187.371a129.28 129.28 0 0 1-185.984 0l-15.125-15.104a1687.253 1687.253 0 0 0-4.395-4.31L512 507.82l-49.28 47.445-13.227 12.928-10.965 11.008a129.28 129.28 0 0 1-186.005 0c-51.456-52.565-52.31-137.963-2.198-191.573L512 132.117l261.675 255.531 3.754 4.181z"  horiz-adv-x="1024" />

    
    <glyph glyph-name="camera" unicode="&#58940;" d="M512 160c-105.888 0-192 86.112-192 192s86.112 192 192 192 192-86.112 192-192-86.112-192-192-192z m0 320c-70.592 0-128-57.408-128-128s57.408-128 128-128 128 57.408 128 128-57.408 128-128 128z m352-480H160c-52.928 0-96 43.072-96 96V608c0 52.928 43.072 96 96 96h96a32 32 0 0 0 0-64H160c-17.632 0-32-14.368-32-32v-512c0-17.664 14.368-32 32-32h704a32 32 0 0 1 32 32V608c0 17.632-14.336 32-32 32H512a32 32 0 0 0 0 64h352c52.928 0 96-43.072 96-96v-512c0-52.928-43.072-96-96-96z m-96 560a48 48 0 0 0 96 0 48 48 0 0 0-96 0zM480 768a32 32 0 0 0-32-32h-128a32 32 0 0 0 0 64h128a32 32 0 0 0 32-32z"  horiz-adv-x="1024" />

    


  </font>
</defs>
</svg>
